G04 #@! TF.GenerationSoftware,KiCad,Pcbnew,(6.0.5-0)*
G04 #@! TF.CreationDate,2022-06-12T23:19:15+02:00*
G04 #@! TF.ProjectId,ESP8266-Breakout,45535038-3236-4362-9d42-7265616b6f75,1.1*
G04 #@! TF.SameCoordinates,PX2faf080PY2faf080*
G04 #@! TF.FileFunction,Copper,L2,Bot*
G04 #@! TF.FilePolarity,Positive*
%FSLAX46Y46*%
G04 Gerber Fmt 4.6, Leading zero omitted, Abs format (unit mm)*
G04 Created by KiCad (PCBNEW (6.0.5-0)) date 2022-06-12 23:19:15*
%MOMM*%
%LPD*%
G01*
G04 APERTURE LIST*
G04 #@! TA.AperFunction,ComponentPad*
%ADD10R,1.700000X1.700000*%
G04 #@! TD*
G04 #@! TA.AperFunction,ComponentPad*
%ADD11O,1.700000X1.700000*%
G04 #@! TD*
G04 #@! TA.AperFunction,ViaPad*
%ADD12C,0.800000*%
G04 #@! TD*
G04 #@! TA.AperFunction,Conductor*
%ADD13C,0.203200*%
G04 #@! TD*
G04 #@! TA.AperFunction,Conductor*
%ADD14C,0.304800*%
G04 #@! TD*
G04 #@! TA.AperFunction,Conductor*
%ADD15C,0.762000*%
G04 #@! TD*
G04 APERTURE END LIST*
D10*
G04 #@! TO.P,J8,1,Pin_1*
G04 #@! TO.N,GND*
X18650000Y-47460000D03*
D11*
G04 #@! TO.P,J8,2,Pin_2*
G04 #@! TO.N,unconnected-(J8-Pad2)*
X21190000Y-47460000D03*
G04 #@! TO.P,J8,3,Pin_3*
G04 #@! TO.N,+3V3*
X23730000Y-47460000D03*
G04 #@! TO.P,J8,4,Pin_4*
G04 #@! TO.N,TXD*
X26270000Y-47460000D03*
G04 #@! TO.P,J8,5,Pin_5*
G04 #@! TO.N,RXD*
X28810000Y-47460000D03*
G04 #@! TO.P,J8,6,Pin_6*
G04 #@! TO.N,unconnected-(J8-Pad6)*
X31350000Y-47460000D03*
G04 #@! TD*
D10*
G04 #@! TO.P,J7,1,Pin_1*
G04 #@! TO.N,GND*
X11030000Y-47460000D03*
D11*
G04 #@! TO.P,J7,2,Pin_2*
G04 #@! TO.N,+5V*
X13570000Y-47460000D03*
G04 #@! TD*
D10*
G04 #@! TO.P,J6,1,Pin_1*
G04 #@! TO.N,GND*
X3410000Y-20790000D03*
D11*
G04 #@! TO.P,J6,2,Pin_2*
G04 #@! TO.N,GPIO13*
X3410000Y-23330000D03*
G04 #@! TO.P,J6,3,Pin_3*
G04 #@! TO.N,+5V*
X3410000Y-25870000D03*
G04 #@! TD*
D10*
G04 #@! TO.P,J5,1,Pin_1*
G04 #@! TO.N,GND*
X3410000Y-10630000D03*
D11*
G04 #@! TO.P,J5,2,Pin_2*
G04 #@! TO.N,GPIO12*
X3410000Y-13170000D03*
G04 #@! TO.P,J5,3,Pin_3*
G04 #@! TO.N,+5V*
X3410000Y-15710000D03*
G04 #@! TD*
D10*
G04 #@! TO.P,J4,1,Pin_1*
G04 #@! TO.N,GND*
X46590000Y-30950000D03*
D11*
G04 #@! TO.P,J4,2,Pin_2*
G04 #@! TO.N,GPIO10*
X46590000Y-33490000D03*
G04 #@! TO.P,J4,3,Pin_3*
G04 #@! TO.N,+5V*
X46590000Y-36030000D03*
G04 #@! TD*
D10*
G04 #@! TO.P,J3,1,Pin_1*
G04 #@! TO.N,GND*
X3410000Y-30950000D03*
D11*
G04 #@! TO.P,J3,2,Pin_2*
G04 #@! TO.N,GPIO9*
X3410000Y-33490000D03*
G04 #@! TO.P,J3,3,Pin_3*
G04 #@! TO.N,+5V*
X3410000Y-36030000D03*
G04 #@! TD*
D10*
G04 #@! TO.P,J2,1,Pin_1*
G04 #@! TO.N,GND*
X46590000Y-10630000D03*
D11*
G04 #@! TO.P,J2,2,Pin_2*
G04 #@! TO.N,GPIO5*
X46590000Y-13170000D03*
G04 #@! TO.P,J2,3,Pin_3*
G04 #@! TO.N,+5V*
X46590000Y-15710000D03*
G04 #@! TD*
D10*
G04 #@! TO.P,J1,1,Pin_1*
G04 #@! TO.N,GND*
X46590000Y-20790000D03*
D11*
G04 #@! TO.P,J1,2,Pin_2*
G04 #@! TO.N,GPIO4*
X46590000Y-23330000D03*
G04 #@! TO.P,J1,3,Pin_3*
G04 #@! TO.N,+5V*
X46590000Y-25870000D03*
G04 #@! TD*
D12*
G04 #@! TO.N,/~{FLASH}*
X38750000Y-15500000D03*
X36400000Y-37350000D03*
G04 #@! TO.N,/~{RESET}*
X14250000Y-8750000D03*
X31250000Y-29750000D03*
G04 #@! TO.N,TXD*
X26275000Y-43075000D03*
X37000000Y-10800000D03*
G04 #@! TO.N,GPIO9*
X21900000Y-28800000D03*
G04 #@! TO.N,RXD*
X35200000Y-8800000D03*
X28800000Y-40000000D03*
G04 #@! TO.N,GPIO10*
X39600000Y-28500000D03*
G04 #@! TO.N,GPIO12*
X11500000Y-17300000D03*
G04 #@! TO.N,GPIO13*
X12700000Y-20800000D03*
G04 #@! TD*
D13*
G04 #@! TO.N,/~{FLASH}*
X36400000Y-37350000D02*
X38750000Y-35000000D01*
X38750000Y-35000000D02*
X38750000Y-15500000D01*
D14*
G04 #@! TO.N,/~{RESET}*
X31250000Y-29750000D02*
X23000000Y-21500000D01*
X20250000Y-8750000D02*
X14250000Y-8750000D01*
X23000000Y-21500000D02*
X23000000Y-11500000D01*
X23000000Y-11500000D02*
X20250000Y-8750000D01*
D15*
G04 #@! TO.N,+5V*
X46590000Y-36030000D02*
X48120000Y-36030000D01*
X48120000Y-36030000D02*
X48825000Y-35325000D01*
X48825000Y-35325000D02*
X48825000Y-28105000D01*
X48825000Y-28105000D02*
X46590000Y-25870000D01*
X46590000Y-25870000D02*
X48255000Y-25870000D01*
X48850000Y-17970000D02*
X46590000Y-15710000D01*
X48255000Y-25870000D02*
X48850000Y-25275000D01*
X48850000Y-25275000D02*
X48850000Y-17970000D01*
X3410000Y-25870000D02*
X1845000Y-25870000D01*
X1845000Y-25870000D02*
X1150000Y-25175000D01*
X1150000Y-17970000D02*
X3410000Y-15710000D01*
X1150000Y-25175000D02*
X1150000Y-17970000D01*
X3410000Y-36030000D02*
X2207919Y-36030000D01*
X1150000Y-34972081D02*
X1150000Y-28130000D01*
X2207919Y-36030000D02*
X1150000Y-34972081D01*
X1150000Y-28130000D02*
X3410000Y-25870000D01*
X13570000Y-47460000D02*
X13570000Y-45830000D01*
X37820000Y-44800000D02*
X46590000Y-36030000D01*
X13570000Y-45830000D02*
X14600000Y-44800000D01*
X14600000Y-44800000D02*
X37820000Y-44800000D01*
D13*
G04 #@! TO.N,TXD*
X37000000Y-10800000D02*
X37000000Y-33725000D01*
X37000000Y-33725000D02*
X29025000Y-41700000D01*
X27625000Y-41700000D02*
X26275000Y-43050000D01*
X29025000Y-41700000D02*
X27625000Y-41700000D01*
X26275000Y-43050000D02*
X26275000Y-43075000D01*
D14*
G04 #@! TO.N,GPIO9*
X21900000Y-28800000D02*
X15275000Y-28800000D01*
X15275000Y-28800000D02*
X10585000Y-33490000D01*
X10585000Y-33490000D02*
X3410000Y-33490000D01*
D13*
G04 #@! TO.N,RXD*
X28800000Y-40000000D02*
X36100000Y-32700000D01*
X36100000Y-32700000D02*
X36100000Y-9700000D01*
X36100000Y-9700000D02*
X35200000Y-8800000D01*
D14*
G04 #@! TO.N,GPIO10*
X39600000Y-28500000D02*
X39625000Y-28500000D01*
X44615000Y-33490000D02*
X45387919Y-33490000D01*
X39625000Y-28500000D02*
X44615000Y-33490000D01*
X45387919Y-33490000D02*
X46590000Y-33490000D01*
G04 #@! TO.N,GPIO12*
X11500000Y-17300000D02*
X7370000Y-13170000D01*
X7370000Y-13170000D02*
X3410000Y-13170000D01*
G04 #@! TO.N,GPIO13*
X12700000Y-20800000D02*
X9050000Y-20800000D01*
X6520000Y-23330000D02*
X3410000Y-23330000D01*
X9050000Y-20800000D02*
X6520000Y-23330000D01*
G04 #@! TD*
G04 #@! TA.AperFunction,Conductor*
G04 #@! TO.N,GND*
G36*
X49738421Y-7020002D02*
G01*
X49784914Y-7073658D01*
X49796300Y-7126000D01*
X49796300Y-46962553D01*
X49794250Y-46980612D01*
X49794241Y-46985806D01*
X49791061Y-46999635D01*
X49794193Y-47013474D01*
X49794168Y-47027665D01*
X49793598Y-47027664D01*
X49794284Y-47035899D01*
X49787037Y-47164933D01*
X49781601Y-47261743D01*
X49779114Y-47306021D01*
X49777533Y-47320057D01*
X49758601Y-47431480D01*
X49727376Y-47615259D01*
X49724232Y-47629034D01*
X49716160Y-47657053D01*
X49641337Y-47916770D01*
X49636676Y-47930089D01*
X49530105Y-48187374D01*
X49522087Y-48206732D01*
X49515958Y-48219459D01*
X49455992Y-48327960D01*
X49371119Y-48481525D01*
X49363602Y-48493489D01*
X49190328Y-48737696D01*
X49181518Y-48748742D01*
X48981998Y-48972006D01*
X48972006Y-48981998D01*
X48748742Y-49181518D01*
X48737696Y-49190328D01*
X48493489Y-49363602D01*
X48481525Y-49371119D01*
X48330752Y-49454449D01*
X48219459Y-49515958D01*
X48206736Y-49522085D01*
X47930089Y-49636676D01*
X47916770Y-49641337D01*
X47719034Y-49698304D01*
X47629034Y-49724232D01*
X47615259Y-49727376D01*
X47467660Y-49752454D01*
X47320057Y-49777533D01*
X47306025Y-49779114D01*
X47036465Y-49794252D01*
X47028382Y-49793563D01*
X47028381Y-49794266D01*
X47014195Y-49794241D01*
X47000365Y-49791061D01*
X46986524Y-49794193D01*
X46982064Y-49794185D01*
X46963135Y-49796300D01*
X3037447Y-49796300D01*
X3019388Y-49794250D01*
X3014194Y-49794241D01*
X3000365Y-49791061D01*
X2986526Y-49794193D01*
X2972335Y-49794168D01*
X2972336Y-49793598D01*
X2964101Y-49794284D01*
X2835067Y-49787037D01*
X2693975Y-49779114D01*
X2679943Y-49777533D01*
X2532340Y-49752454D01*
X2384741Y-49727376D01*
X2370966Y-49724232D01*
X2280966Y-49698304D01*
X2083230Y-49641337D01*
X2069911Y-49636676D01*
X1793264Y-49522085D01*
X1780541Y-49515958D01*
X1669248Y-49454449D01*
X1518475Y-49371119D01*
X1506511Y-49363602D01*
X1262304Y-49190328D01*
X1251258Y-49181518D01*
X1027994Y-48981998D01*
X1018002Y-48972006D01*
X818482Y-48748742D01*
X809672Y-48737696D01*
X636398Y-48493489D01*
X628881Y-48481525D01*
X544008Y-48327960D01*
X484042Y-48219459D01*
X477913Y-48206732D01*
X469895Y-48187374D01*
X363324Y-47930089D01*
X358663Y-47916770D01*
X283840Y-47657053D01*
X275768Y-47629034D01*
X272624Y-47615259D01*
X241399Y-47431480D01*
X222467Y-47320057D01*
X220886Y-47306021D01*
X205764Y-47036750D01*
X207655Y-47014908D01*
X206511Y-47014776D01*
X207327Y-47007678D01*
X208938Y-47000729D01*
X208939Y-47000000D01*
X208856Y-46999635D01*
X1191061Y-46999635D01*
X1191947Y-47003550D01*
X1210099Y-47257349D01*
X1211055Y-47261743D01*
X1261376Y-47493066D01*
X1264942Y-47509459D01*
X1355106Y-47751198D01*
X1478755Y-47977645D01*
X1633373Y-48184189D01*
X1815811Y-48366627D01*
X2022355Y-48521245D01*
X2248802Y-48644894D01*
X2253014Y-48646465D01*
X2486323Y-48733485D01*
X2486326Y-48733486D01*
X2490541Y-48735058D01*
X2494932Y-48736013D01*
X2494938Y-48736015D01*
X2682525Y-48776822D01*
X2742651Y-48789901D01*
X3000000Y-48808307D01*
X3004488Y-48807986D01*
X3252861Y-48790222D01*
X3257349Y-48789901D01*
X3317475Y-48776822D01*
X3505062Y-48736015D01*
X3505068Y-48736013D01*
X3509459Y-48735058D01*
X3513674Y-48733486D01*
X3513677Y-48733485D01*
X3746986Y-48646465D01*
X3751198Y-48644894D01*
X3977645Y-48521245D01*
X4184189Y-48366627D01*
X4196147Y-48354669D01*
X9672001Y-48354669D01*
X9672371Y-48361490D01*
X9677895Y-48412352D01*
X9681521Y-48427604D01*
X9726676Y-48548054D01*
X9735214Y-48563649D01*
X9811715Y-48665724D01*
X9824276Y-48678285D01*
X9926351Y-48754786D01*
X9941946Y-48763324D01*
X10062394Y-48808478D01*
X10077649Y-48812105D01*
X10128514Y-48817631D01*
X10135328Y-48818000D01*
X10757885Y-48818000D01*
X10773124Y-48813525D01*
X10774329Y-48812135D01*
X10776000Y-48804452D01*
X10776000Y-48799884D01*
X11284000Y-48799884D01*
X11288475Y-48815123D01*
X11289865Y-48816328D01*
X11297548Y-48817999D01*
X11924669Y-48817999D01*
X11931490Y-48817629D01*
X11982352Y-48812105D01*
X11997604Y-48808479D01*
X12118054Y-48763324D01*
X12133649Y-48754786D01*
X12235724Y-48678285D01*
X12248285Y-48665724D01*
X12324786Y-48563649D01*
X12333324Y-48548054D01*
X12378478Y-48427606D01*
X12382105Y-48412351D01*
X12387631Y-48361486D01*
X12388000Y-48354672D01*
X12388000Y-47986192D01*
X12408002Y-47918071D01*
X12461658Y-47871578D01*
X12531932Y-47861474D01*
X12596512Y-47890968D01*
X12626067Y-47928598D01*
X12680010Y-48033560D01*
X12683835Y-48038386D01*
X12683837Y-48038389D01*
X12756154Y-48129630D01*
X12808364Y-48195503D01*
X12965730Y-48329431D01*
X13146111Y-48430243D01*
X13342639Y-48494099D01*
X13547826Y-48518566D01*
X13553961Y-48518094D01*
X13553963Y-48518094D01*
X13747715Y-48503185D01*
X13747718Y-48503184D01*
X13753858Y-48502712D01*
X13952887Y-48447143D01*
X14135954Y-48354669D01*
X17292001Y-48354669D01*
X17292371Y-48361490D01*
X17297895Y-48412352D01*
X17301521Y-48427604D01*
X17346676Y-48548054D01*
X17355214Y-48563649D01*
X17431715Y-48665724D01*
X17444276Y-48678285D01*
X17546351Y-48754786D01*
X17561946Y-48763324D01*
X17682394Y-48808478D01*
X17697649Y-48812105D01*
X17748514Y-48817631D01*
X17755328Y-48818000D01*
X18377885Y-48818000D01*
X18393124Y-48813525D01*
X18394329Y-48812135D01*
X18396000Y-48804452D01*
X18396000Y-48799884D01*
X18904000Y-48799884D01*
X18908475Y-48815123D01*
X18909865Y-48816328D01*
X18917548Y-48817999D01*
X19544669Y-48817999D01*
X19551490Y-48817629D01*
X19602352Y-48812105D01*
X19617604Y-48808479D01*
X19738054Y-48763324D01*
X19753649Y-48754786D01*
X19855724Y-48678285D01*
X19868285Y-48665724D01*
X19944786Y-48563649D01*
X19953324Y-48548054D01*
X19998478Y-48427606D01*
X20002105Y-48412351D01*
X20007631Y-48361486D01*
X20008000Y-48354672D01*
X20008000Y-47986192D01*
X20028002Y-47918071D01*
X20081658Y-47871578D01*
X20151932Y-47861474D01*
X20216512Y-47890968D01*
X20246067Y-47928598D01*
X20300010Y-48033560D01*
X20303835Y-48038386D01*
X20303837Y-48038389D01*
X20376154Y-48129630D01*
X20428364Y-48195503D01*
X20585730Y-48329431D01*
X20766111Y-48430243D01*
X20962639Y-48494099D01*
X21167826Y-48518566D01*
X21173961Y-48518094D01*
X21173963Y-48518094D01*
X21367715Y-48503185D01*
X21367718Y-48503184D01*
X21373858Y-48502712D01*
X21572887Y-48447143D01*
X21757332Y-48353973D01*
X21784899Y-48332436D01*
X21915307Y-48230550D01*
X21915308Y-48230549D01*
X21920168Y-48226752D01*
X22055191Y-48070325D01*
X22157260Y-47890652D01*
X22222486Y-47694575D01*
X22248385Y-47489563D01*
X22248798Y-47460000D01*
X22247348Y-47445217D01*
X22671305Y-47445217D01*
X22671821Y-47451361D01*
X22688080Y-47644994D01*
X22688081Y-47644999D01*
X22688596Y-47651133D01*
X22745555Y-47849770D01*
X22840010Y-48033560D01*
X22843835Y-48038386D01*
X22843837Y-48038389D01*
X22916154Y-48129630D01*
X22968364Y-48195503D01*
X23125730Y-48329431D01*
X23306111Y-48430243D01*
X23502639Y-48494099D01*
X23707826Y-48518566D01*
X23713961Y-48518094D01*
X23713963Y-48518094D01*
X23907715Y-48503185D01*
X23907718Y-48503184D01*
X23913858Y-48502712D01*
X24112887Y-48447143D01*
X24297332Y-48353973D01*
X24324899Y-48332436D01*
X24455307Y-48230550D01*
X24455308Y-48230549D01*
X24460168Y-48226752D01*
X24595191Y-48070325D01*
X24697260Y-47890652D01*
X24762486Y-47694575D01*
X24788385Y-47489563D01*
X24788798Y-47460000D01*
X24787348Y-47445217D01*
X25211305Y-47445217D01*
X25211821Y-47451361D01*
X25228080Y-47644994D01*
X25228081Y-47644999D01*
X25228596Y-47651133D01*
X25285555Y-47849770D01*
X25380010Y-48033560D01*
X25383835Y-48038386D01*
X25383837Y-48038389D01*
X25456154Y-48129630D01*
X25508364Y-48195503D01*
X25665730Y-48329431D01*
X25846111Y-48430243D01*
X26042639Y-48494099D01*
X26247826Y-48518566D01*
X26253961Y-48518094D01*
X26253963Y-48518094D01*
X26447715Y-48503185D01*
X26447718Y-48503184D01*
X26453858Y-48502712D01*
X26652887Y-48447143D01*
X26837332Y-48353973D01*
X26864899Y-48332436D01*
X26995307Y-48230550D01*
X26995308Y-48230549D01*
X27000168Y-48226752D01*
X27135191Y-48070325D01*
X27237260Y-47890652D01*
X27302486Y-47694575D01*
X27328385Y-47489563D01*
X27328798Y-47460000D01*
X27327348Y-47445217D01*
X27751305Y-47445217D01*
X27751821Y-47451361D01*
X27768080Y-47644994D01*
X27768081Y-47644999D01*
X27768596Y-47651133D01*
X27825555Y-47849770D01*
X27920010Y-48033560D01*
X27923835Y-48038386D01*
X27923837Y-48038389D01*
X27996154Y-48129630D01*
X28048364Y-48195503D01*
X28205730Y-48329431D01*
X28386111Y-48430243D01*
X28582639Y-48494099D01*
X28787826Y-48518566D01*
X28793961Y-48518094D01*
X28793963Y-48518094D01*
X28987715Y-48503185D01*
X28987718Y-48503184D01*
X28993858Y-48502712D01*
X29192887Y-48447143D01*
X29377332Y-48353973D01*
X29404899Y-48332436D01*
X29535307Y-48230550D01*
X29535308Y-48230549D01*
X29540168Y-48226752D01*
X29675191Y-48070325D01*
X29777260Y-47890652D01*
X29842486Y-47694575D01*
X29868385Y-47489563D01*
X29868798Y-47460000D01*
X29867348Y-47445217D01*
X30291305Y-47445217D01*
X30291821Y-47451361D01*
X30308080Y-47644994D01*
X30308081Y-47644999D01*
X30308596Y-47651133D01*
X30365555Y-47849770D01*
X30460010Y-48033560D01*
X30463835Y-48038386D01*
X30463837Y-48038389D01*
X30536154Y-48129630D01*
X30588364Y-48195503D01*
X30745730Y-48329431D01*
X30926111Y-48430243D01*
X31122639Y-48494099D01*
X31327826Y-48518566D01*
X31333961Y-48518094D01*
X31333963Y-48518094D01*
X31527715Y-48503185D01*
X31527718Y-48503184D01*
X31533858Y-48502712D01*
X31732887Y-48447143D01*
X31917332Y-48353973D01*
X31944899Y-48332436D01*
X32075307Y-48230550D01*
X32075308Y-48230549D01*
X32080168Y-48226752D01*
X32215191Y-48070325D01*
X32317260Y-47890652D01*
X32382486Y-47694575D01*
X32408385Y-47489563D01*
X32408798Y-47460000D01*
X32388633Y-47254345D01*
X32377790Y-47218429D01*
X32330688Y-47062422D01*
X32328907Y-47056523D01*
X32298659Y-46999635D01*
X45191061Y-46999635D01*
X45191947Y-47003550D01*
X45210099Y-47257349D01*
X45211055Y-47261743D01*
X45261376Y-47493066D01*
X45264942Y-47509459D01*
X45355106Y-47751198D01*
X45478755Y-47977645D01*
X45633373Y-48184189D01*
X45815811Y-48366627D01*
X46022355Y-48521245D01*
X46248802Y-48644894D01*
X46253014Y-48646465D01*
X46486323Y-48733485D01*
X46486326Y-48733486D01*
X46490541Y-48735058D01*
X46494932Y-48736013D01*
X46494938Y-48736015D01*
X46682525Y-48776822D01*
X46742651Y-48789901D01*
X47000000Y-48808307D01*
X47004488Y-48807986D01*
X47252861Y-48790222D01*
X47257349Y-48789901D01*
X47317475Y-48776822D01*
X47505062Y-48736015D01*
X47505068Y-48736013D01*
X47509459Y-48735058D01*
X47513674Y-48733486D01*
X47513677Y-48733485D01*
X47746986Y-48646465D01*
X47751198Y-48644894D01*
X47977645Y-48521245D01*
X48184189Y-48366627D01*
X48366627Y-48184189D01*
X48521245Y-47977645D01*
X48644894Y-47751198D01*
X48735058Y-47509459D01*
X48738625Y-47493066D01*
X48788945Y-47261743D01*
X48789901Y-47257349D01*
X48807950Y-47004992D01*
X48808698Y-47005045D01*
X48808450Y-47002833D01*
X48808938Y-47000729D01*
X48808939Y-47000000D01*
X48808455Y-46997879D01*
X48808681Y-46995915D01*
X48808018Y-46995962D01*
X48790222Y-46747139D01*
X48789901Y-46742651D01*
X48755001Y-46582217D01*
X48736015Y-46494938D01*
X48736013Y-46494932D01*
X48735058Y-46490541D01*
X48732594Y-46483933D01*
X48646465Y-46253014D01*
X48644894Y-46248802D01*
X48521245Y-46022355D01*
X48366627Y-45815811D01*
X48184189Y-45633373D01*
X47977645Y-45478755D01*
X47869195Y-45419537D01*
X47755143Y-45357260D01*
X47755142Y-45357259D01*
X47751198Y-45355106D01*
X47678497Y-45327990D01*
X47513677Y-45266515D01*
X47513674Y-45266514D01*
X47509459Y-45264942D01*
X47505068Y-45263987D01*
X47505062Y-45263985D01*
X47289132Y-45217013D01*
X47257349Y-45210099D01*
X47000000Y-45191693D01*
X46742651Y-45210099D01*
X46710868Y-45217013D01*
X46494938Y-45263985D01*
X46494932Y-45263987D01*
X46490541Y-45264942D01*
X46486326Y-45266514D01*
X46486323Y-45266515D01*
X46321503Y-45327990D01*
X46248802Y-45355106D01*
X46244858Y-45357259D01*
X46244857Y-45357260D01*
X46130805Y-45419537D01*
X46022355Y-45478755D01*
X45815811Y-45633373D01*
X45633373Y-45815811D01*
X45478755Y-46022355D01*
X45355106Y-46248802D01*
X45353535Y-46253014D01*
X45267407Y-46483933D01*
X45264942Y-46490541D01*
X45263987Y-46494932D01*
X45263985Y-46494938D01*
X45244999Y-46582217D01*
X45210099Y-46742651D01*
X45192016Y-46995481D01*
X45191061Y-46999635D01*
X32298659Y-46999635D01*
X32231895Y-46874070D01*
X32228005Y-46869300D01*
X32228002Y-46869296D01*
X32105187Y-46718710D01*
X32105184Y-46718707D01*
X32101292Y-46713935D01*
X32096543Y-46710006D01*
X31946822Y-46586146D01*
X31946819Y-46586144D01*
X31942072Y-46582217D01*
X31760301Y-46483933D01*
X31661601Y-46453381D01*
X31568788Y-46424650D01*
X31568785Y-46424649D01*
X31562901Y-46422828D01*
X31556776Y-46422184D01*
X31556775Y-46422184D01*
X31363520Y-46401872D01*
X31363519Y-46401872D01*
X31357392Y-46401228D01*
X31230582Y-46412768D01*
X31157742Y-46419397D01*
X31157741Y-46419397D01*
X31151601Y-46419956D01*
X30953367Y-46478300D01*
X30770241Y-46574036D01*
X30765441Y-46577896D01*
X30765440Y-46577896D01*
X30765023Y-46578231D01*
X30609198Y-46703518D01*
X30476371Y-46861814D01*
X30473408Y-46867203D01*
X30473405Y-46867208D01*
X30392207Y-47014908D01*
X30376821Y-47042895D01*
X30314339Y-47239864D01*
X30313653Y-47245981D01*
X30313652Y-47245985D01*
X30306918Y-47306021D01*
X30291305Y-47445217D01*
X29867348Y-47445217D01*
X29848633Y-47254345D01*
X29837790Y-47218429D01*
X29790688Y-47062422D01*
X29788907Y-47056523D01*
X29691895Y-46874070D01*
X29688005Y-46869300D01*
X29688002Y-46869296D01*
X29565187Y-46718710D01*
X29565184Y-46718707D01*
X29561292Y-46713935D01*
X29556543Y-46710006D01*
X29406822Y-46586146D01*
X29406819Y-46586144D01*
X29402072Y-46582217D01*
X29220301Y-46483933D01*
X29121601Y-46453381D01*
X29028788Y-46424650D01*
X29028785Y-46424649D01*
X29022901Y-46422828D01*
X29016776Y-46422184D01*
X29016775Y-46422184D01*
X28823520Y-46401872D01*
X28823519Y-46401872D01*
X28817392Y-46401228D01*
X28690582Y-46412768D01*
X28617742Y-46419397D01*
X28617741Y-46419397D01*
X28611601Y-46419956D01*
X28413367Y-46478300D01*
X28230241Y-46574036D01*
X28225441Y-46577896D01*
X28225440Y-46577896D01*
X28225023Y-46578231D01*
X28069198Y-46703518D01*
X27936371Y-46861814D01*
X27933408Y-46867203D01*
X27933405Y-46867208D01*
X27852207Y-47014908D01*
X27836821Y-47042895D01*
X27774339Y-47239864D01*
X27773653Y-47245981D01*
X27773652Y-47245985D01*
X27766918Y-47306021D01*
X27751305Y-47445217D01*
X27327348Y-47445217D01*
X27308633Y-47254345D01*
X27297790Y-47218429D01*
X27250688Y-47062422D01*
X27248907Y-47056523D01*
X27151895Y-46874070D01*
X27148005Y-46869300D01*
X27148002Y-46869296D01*
X27025187Y-46718710D01*
X27025184Y-46718707D01*
X27021292Y-46713935D01*
X27016543Y-46710006D01*
X26866822Y-46586146D01*
X26866819Y-46586144D01*
X26862072Y-46582217D01*
X26680301Y-46483933D01*
X26581601Y-46453381D01*
X26488788Y-46424650D01*
X26488785Y-46424649D01*
X26482901Y-46422828D01*
X26476776Y-46422184D01*
X26476775Y-46422184D01*
X26283520Y-46401872D01*
X26283519Y-46401872D01*
X26277392Y-46401228D01*
X26150582Y-46412768D01*
X26077742Y-46419397D01*
X26077741Y-46419397D01*
X26071601Y-46419956D01*
X25873367Y-46478300D01*
X25690241Y-46574036D01*
X25685441Y-46577896D01*
X25685440Y-46577896D01*
X25685023Y-46578231D01*
X25529198Y-46703518D01*
X25396371Y-46861814D01*
X25393408Y-46867203D01*
X25393405Y-46867208D01*
X25312207Y-47014908D01*
X25296821Y-47042895D01*
X25234339Y-47239864D01*
X25233653Y-47245981D01*
X25233652Y-47245985D01*
X25226918Y-47306021D01*
X25211305Y-47445217D01*
X24787348Y-47445217D01*
X24768633Y-47254345D01*
X24757790Y-47218429D01*
X24710688Y-47062422D01*
X24708907Y-47056523D01*
X24611895Y-46874070D01*
X24608005Y-46869300D01*
X24608002Y-46869296D01*
X24485187Y-46718710D01*
X24485184Y-46718707D01*
X24481292Y-46713935D01*
X24476543Y-46710006D01*
X24326822Y-46586146D01*
X24326819Y-46586144D01*
X24322072Y-46582217D01*
X24140301Y-46483933D01*
X24041601Y-46453381D01*
X23948788Y-46424650D01*
X23948785Y-46424649D01*
X23942901Y-46422828D01*
X23936776Y-46422184D01*
X23936775Y-46422184D01*
X23743520Y-46401872D01*
X23743519Y-46401872D01*
X23737392Y-46401228D01*
X23610582Y-46412768D01*
X23537742Y-46419397D01*
X23537741Y-46419397D01*
X23531601Y-46419956D01*
X23333367Y-46478300D01*
X23150241Y-46574036D01*
X23145441Y-46577896D01*
X23145440Y-46577896D01*
X23145023Y-46578231D01*
X22989198Y-46703518D01*
X22856371Y-46861814D01*
X22853408Y-46867203D01*
X22853405Y-46867208D01*
X22772207Y-47014908D01*
X22756821Y-47042895D01*
X22694339Y-47239864D01*
X22693653Y-47245981D01*
X22693652Y-47245985D01*
X22686918Y-47306021D01*
X22671305Y-47445217D01*
X22247348Y-47445217D01*
X22228633Y-47254345D01*
X22217790Y-47218429D01*
X22170688Y-47062422D01*
X22168907Y-47056523D01*
X22071895Y-46874070D01*
X22068005Y-46869300D01*
X22068002Y-46869296D01*
X21945187Y-46718710D01*
X21945184Y-46718707D01*
X21941292Y-46713935D01*
X21936543Y-46710006D01*
X21786822Y-46586146D01*
X21786819Y-46586144D01*
X21782072Y-46582217D01*
X21600301Y-46483933D01*
X21501601Y-46453381D01*
X21408788Y-46424650D01*
X21408785Y-46424649D01*
X21402901Y-46422828D01*
X21396776Y-46422184D01*
X21396775Y-46422184D01*
X21203520Y-46401872D01*
X21203519Y-46401872D01*
X21197392Y-46401228D01*
X21070582Y-46412768D01*
X20997742Y-46419397D01*
X20997741Y-46419397D01*
X20991601Y-46419956D01*
X20793367Y-46478300D01*
X20610241Y-46574036D01*
X20605441Y-46577896D01*
X20605440Y-46577896D01*
X20605023Y-46578231D01*
X20449198Y-46703518D01*
X20316371Y-46861814D01*
X20313408Y-46867203D01*
X20313405Y-46867208D01*
X20244414Y-46992703D01*
X20194068Y-47042762D01*
X20124651Y-47057655D01*
X20058202Y-47032654D01*
X20015818Y-46975697D01*
X20007999Y-46932002D01*
X20007999Y-46565331D01*
X20007629Y-46558510D01*
X20002105Y-46507648D01*
X19998479Y-46492396D01*
X19953324Y-46371946D01*
X19944786Y-46356351D01*
X19868285Y-46254276D01*
X19855724Y-46241715D01*
X19753649Y-46165214D01*
X19738054Y-46156676D01*
X19617606Y-46111522D01*
X19602351Y-46107895D01*
X19551486Y-46102369D01*
X19544672Y-46102000D01*
X18922115Y-46102000D01*
X18906876Y-46106475D01*
X18905671Y-46107865D01*
X18904000Y-46115548D01*
X18904000Y-48799884D01*
X18396000Y-48799884D01*
X18396000Y-47732115D01*
X18391525Y-47716876D01*
X18390135Y-47715671D01*
X18382452Y-47714000D01*
X17310116Y-47714000D01*
X17294877Y-47718475D01*
X17293672Y-47719865D01*
X17292001Y-47727548D01*
X17292001Y-48354669D01*
X14135954Y-48354669D01*
X14137332Y-48353973D01*
X14164899Y-48332436D01*
X14295307Y-48230550D01*
X14295308Y-48230549D01*
X14300168Y-48226752D01*
X14435191Y-48070325D01*
X14537260Y-47890652D01*
X14602486Y-47694575D01*
X14628385Y-47489563D01*
X14628798Y-47460000D01*
X14608633Y-47254345D01*
X14597790Y-47218429D01*
X14588568Y-47187885D01*
X17292000Y-47187885D01*
X17296475Y-47203124D01*
X17297865Y-47204329D01*
X17305548Y-47206000D01*
X18377885Y-47206000D01*
X18393124Y-47201525D01*
X18394329Y-47200135D01*
X18396000Y-47192452D01*
X18396000Y-46120116D01*
X18391525Y-46104877D01*
X18390135Y-46103672D01*
X18382452Y-46102001D01*
X17755331Y-46102001D01*
X17748510Y-46102371D01*
X17697648Y-46107895D01*
X17682396Y-46111521D01*
X17561946Y-46156676D01*
X17546351Y-46165214D01*
X17444276Y-46241715D01*
X17431715Y-46254276D01*
X17355214Y-46356351D01*
X17346676Y-46371946D01*
X17301522Y-46492394D01*
X17297895Y-46507649D01*
X17292369Y-46558514D01*
X17292000Y-46565328D01*
X17292000Y-47187885D01*
X14588568Y-47187885D01*
X14550688Y-47062422D01*
X14548907Y-47056523D01*
X14451895Y-46874070D01*
X14448005Y-46869300D01*
X14448002Y-46869296D01*
X14325187Y-46718710D01*
X14325184Y-46718707D01*
X14321292Y-46713935D01*
X14314405Y-46708237D01*
X14200385Y-46613912D01*
X14160646Y-46555078D01*
X14154700Y-46516827D01*
X14154700Y-46124380D01*
X14174702Y-46056259D01*
X14191605Y-46035285D01*
X14805285Y-45421605D01*
X14867597Y-45387579D01*
X14894380Y-45384700D01*
X37773422Y-45384700D01*
X37789869Y-45385778D01*
X37820000Y-45389745D01*
X37858319Y-45384700D01*
X37858324Y-45384700D01*
X37964449Y-45370728D01*
X37972637Y-45369650D01*
X38073213Y-45327990D01*
X38114873Y-45310734D01*
X38180534Y-45260350D01*
X38237013Y-45217013D01*
X38242039Y-45210463D01*
X38242043Y-45210459D01*
X38255523Y-45192891D01*
X38266391Y-45180499D01*
X46337381Y-37109509D01*
X46399693Y-37075483D01*
X46441394Y-37073490D01*
X46567826Y-37088566D01*
X46573961Y-37088094D01*
X46573963Y-37088094D01*
X46767715Y-37073185D01*
X46767718Y-37073184D01*
X46773858Y-37072712D01*
X46972887Y-37017143D01*
X47157332Y-36923973D01*
X47169569Y-36914413D01*
X47315307Y-36800550D01*
X47315308Y-36800549D01*
X47320168Y-36796752D01*
X47439616Y-36658369D01*
X47499269Y-36619872D01*
X47534998Y-36614700D01*
X48073422Y-36614700D01*
X48089869Y-36615778D01*
X48120000Y-36619745D01*
X48158319Y-36614700D01*
X48158324Y-36614700D01*
X48264449Y-36600728D01*
X48272637Y-36599650D01*
X48373213Y-36557990D01*
X48414873Y-36540734D01*
X48459386Y-36506577D01*
X48537013Y-36447013D01*
X48555520Y-36422894D01*
X48566388Y-36410502D01*
X49205511Y-35771380D01*
X49217903Y-35760513D01*
X49235463Y-35747039D01*
X49242013Y-35742013D01*
X49335734Y-35619872D01*
X49394650Y-35477637D01*
X49399069Y-35444070D01*
X49414746Y-35325000D01*
X49410778Y-35294862D01*
X49409700Y-35278415D01*
X49409700Y-28151578D01*
X49410778Y-28135131D01*
X49413667Y-28113188D01*
X49414745Y-28105000D01*
X49409623Y-28066095D01*
X49394650Y-27952363D01*
X49379174Y-27914999D01*
X49360138Y-27869043D01*
X49338894Y-27817757D01*
X49335734Y-27810127D01*
X49265542Y-27718651D01*
X49242013Y-27687987D01*
X49217893Y-27669479D01*
X49205503Y-27658612D01*
X48216196Y-26669306D01*
X48182171Y-26606994D01*
X48187235Y-26536179D01*
X48229782Y-26479343D01*
X48288845Y-26455289D01*
X48293319Y-26454700D01*
X48293323Y-26454700D01*
X48399449Y-26440728D01*
X48407637Y-26439650D01*
X48508213Y-26397990D01*
X48549873Y-26380734D01*
X48594386Y-26346577D01*
X48672013Y-26287013D01*
X48677040Y-26280462D01*
X48677043Y-26280459D01*
X48690523Y-26262891D01*
X48701391Y-26250499D01*
X49230503Y-25721387D01*
X49242895Y-25710519D01*
X49260460Y-25697041D01*
X49267013Y-25692013D01*
X49272039Y-25685463D01*
X49272043Y-25685459D01*
X49343744Y-25592015D01*
X49343745Y-25592013D01*
X49355708Y-25576423D01*
X49355708Y-25576422D01*
X49360734Y-25569873D01*
X49363894Y-25562245D01*
X49402155Y-25469874D01*
X49416490Y-25435266D01*
X49416490Y-25435265D01*
X49419650Y-25427637D01*
X49434700Y-25313321D01*
X49434700Y-25313319D01*
X49439745Y-25275000D01*
X49435778Y-25244867D01*
X49434700Y-25228421D01*
X49434700Y-18016586D01*
X49435778Y-18000139D01*
X49438668Y-17978188D01*
X49439746Y-17970000D01*
X49419650Y-17817363D01*
X49360734Y-17675128D01*
X49290543Y-17583652D01*
X49290542Y-17583651D01*
X49267013Y-17552987D01*
X49260461Y-17547959D01*
X49242894Y-17534480D01*
X49230503Y-17523612D01*
X48450990Y-16744099D01*
X47669383Y-15962493D01*
X47635358Y-15900181D01*
X47633472Y-15857609D01*
X47643470Y-15778472D01*
X47647943Y-15743064D01*
X47647943Y-15743059D01*
X47648385Y-15739563D01*
X47648798Y-15710000D01*
X47628633Y-15504345D01*
X47568907Y-15306523D01*
X47513956Y-15203176D01*
X47474789Y-15129512D01*
X47474787Y-15129509D01*
X47471895Y-15124070D01*
X47468005Y-15119300D01*
X47468002Y-15119296D01*
X47345187Y-14968710D01*
X47345184Y-14968707D01*
X47341292Y-14963935D01*
X47336543Y-14960006D01*
X47186822Y-14836146D01*
X47186819Y-14836144D01*
X47182072Y-14832217D01*
X47000301Y-14733933D01*
X46901601Y-14703381D01*
X46808788Y-14674650D01*
X46808785Y-14674649D01*
X46802901Y-14672828D01*
X46796776Y-14672184D01*
X46796775Y-14672184D01*
X46603520Y-14651872D01*
X46603519Y-14651872D01*
X46597392Y-14651228D01*
X46470582Y-14662768D01*
X46397742Y-14669397D01*
X46397741Y-14669397D01*
X46391601Y-14669956D01*
X46193367Y-14728300D01*
X46010241Y-14824036D01*
X45849198Y-14953518D01*
X45845239Y-14958236D01*
X45845238Y-14958237D01*
X45746438Y-15075982D01*
X45716371Y-15111814D01*
X45713408Y-15117203D01*
X45713405Y-15117208D01*
X45709633Y-15124070D01*
X45616821Y-15292895D01*
X45554339Y-15489864D01*
X45553653Y-15495981D01*
X45553652Y-15495985D01*
X45536443Y-15649409D01*
X45531305Y-15695217D01*
X45531821Y-15701361D01*
X45548080Y-15894994D01*
X45548081Y-15894999D01*
X45548596Y-15901133D01*
X45559298Y-15938455D01*
X45602415Y-16088819D01*
X45605555Y-16099770D01*
X45700010Y-16283560D01*
X45703835Y-16288386D01*
X45703837Y-16288389D01*
X45824535Y-16440672D01*
X45828364Y-16445503D01*
X45985730Y-16579431D01*
X46166111Y-16680243D01*
X46362639Y-16744099D01*
X46567826Y-16768566D01*
X46573961Y-16768094D01*
X46573963Y-16768094D01*
X46628980Y-16763860D01*
X46745757Y-16754874D01*
X46815209Y-16769591D01*
X46844517Y-16791408D01*
X48228395Y-18175286D01*
X48262421Y-18237598D01*
X48265300Y-18264381D01*
X48265300Y-24980620D01*
X48245298Y-25048741D01*
X48228395Y-25069715D01*
X48049715Y-25248395D01*
X47987403Y-25282421D01*
X47960620Y-25285300D01*
X47532728Y-25285300D01*
X47464607Y-25265298D01*
X47435085Y-25238936D01*
X47345187Y-25128710D01*
X47345184Y-25128707D01*
X47341292Y-25123935D01*
X47336543Y-25120006D01*
X47186822Y-24996146D01*
X47186819Y-24996144D01*
X47182072Y-24992217D01*
X47000301Y-24893933D01*
X46901601Y-24863381D01*
X46808788Y-24834650D01*
X46808785Y-24834649D01*
X46802901Y-24832828D01*
X46796776Y-24832184D01*
X46796775Y-24832184D01*
X46603520Y-24811872D01*
X46603519Y-24811872D01*
X46597392Y-24811228D01*
X46470582Y-24822768D01*
X46397742Y-24829397D01*
X46397741Y-24829397D01*
X46391601Y-24829956D01*
X46193367Y-24888300D01*
X46010241Y-24984036D01*
X45849198Y-25113518D01*
X45845239Y-25118236D01*
X45845238Y-25118237D01*
X45765454Y-25213319D01*
X45716371Y-25271814D01*
X45713408Y-25277203D01*
X45713405Y-25277208D01*
X45706641Y-25289512D01*
X45616821Y-25452895D01*
X45554339Y-25649864D01*
X45553653Y-25655981D01*
X45553652Y-25655985D01*
X45546316Y-25721387D01*
X45531305Y-25855217D01*
X45531821Y-25861361D01*
X45548080Y-26054994D01*
X45548081Y-26054999D01*
X45548596Y-26061133D01*
X45550294Y-26067053D01*
X45602899Y-26250507D01*
X45605555Y-26259770D01*
X45629322Y-26306015D01*
X45696377Y-26436490D01*
X45700010Y-26443560D01*
X45703835Y-26448386D01*
X45703837Y-26448389D01*
X45824535Y-26600672D01*
X45828364Y-26605503D01*
X45985730Y-26739431D01*
X46166111Y-26840243D01*
X46362639Y-26904099D01*
X46567826Y-26928566D01*
X46573961Y-26928094D01*
X46573963Y-26928094D01*
X46628980Y-26923860D01*
X46745757Y-26914874D01*
X46815209Y-26929591D01*
X46844517Y-26951408D01*
X48203395Y-28310286D01*
X48237421Y-28372598D01*
X48240300Y-28399381D01*
X48240300Y-35030618D01*
X48220298Y-35098739D01*
X48203396Y-35119713D01*
X47914715Y-35408395D01*
X47852402Y-35442420D01*
X47825619Y-35445300D01*
X47532728Y-35445300D01*
X47464607Y-35425298D01*
X47435085Y-35398936D01*
X47345187Y-35288710D01*
X47345184Y-35288707D01*
X47341292Y-35283935D01*
X47336543Y-35280006D01*
X47186822Y-35156146D01*
X47186819Y-35156144D01*
X47182072Y-35152217D01*
X47000301Y-35053933D01*
X46901601Y-35023380D01*
X46808788Y-34994650D01*
X46808785Y-34994649D01*
X46802901Y-34992828D01*
X46796776Y-34992184D01*
X46796775Y-34992184D01*
X46603520Y-34971872D01*
X46603519Y-34971872D01*
X46597392Y-34971228D01*
X46511518Y-34979043D01*
X46397742Y-34989397D01*
X46397741Y-34989397D01*
X46391601Y-34989956D01*
X46193367Y-35048300D01*
X46010241Y-35144036D01*
X45849198Y-35273518D01*
X45845239Y-35278236D01*
X45845238Y-35278237D01*
X45747997Y-35394124D01*
X45716371Y-35431814D01*
X45713408Y-35437203D01*
X45713405Y-35437208D01*
X45619788Y-35607498D01*
X45616821Y-35612895D01*
X45554339Y-35809864D01*
X45553653Y-35815981D01*
X45553652Y-35815985D01*
X45531992Y-36009092D01*
X45531305Y-36015217D01*
X45531821Y-36021361D01*
X45545513Y-36184422D01*
X45531281Y-36253978D01*
X45509050Y-36284060D01*
X37614715Y-44178395D01*
X37552403Y-44212421D01*
X37525620Y-44215300D01*
X14646578Y-44215300D01*
X14630131Y-44214222D01*
X14608188Y-44211333D01*
X14600000Y-44210255D01*
X14561681Y-44215300D01*
X14561676Y-44215300D01*
X14455551Y-44229272D01*
X14447363Y-44230350D01*
X14346787Y-44272010D01*
X14305127Y-44289266D01*
X14260614Y-44323423D01*
X14182987Y-44382987D01*
X14177961Y-44389537D01*
X14177957Y-44389541D01*
X14164477Y-44407109D01*
X14153609Y-44419501D01*
X13189497Y-45383613D01*
X13177106Y-45394480D01*
X13152987Y-45412987D01*
X13147961Y-45419537D01*
X13102523Y-45478754D01*
X13102522Y-45478755D01*
X13070294Y-45520754D01*
X13070293Y-45520756D01*
X13059266Y-45535127D01*
X13059266Y-45535128D01*
X13053225Y-45549713D01*
X13053224Y-45549714D01*
X13019689Y-45630675D01*
X13000350Y-45677363D01*
X12990012Y-45755888D01*
X12980255Y-45830000D01*
X12981333Y-45838188D01*
X12984222Y-45860133D01*
X12985300Y-45876579D01*
X12985300Y-46517639D01*
X12965298Y-46585760D01*
X12938252Y-46615835D01*
X12834004Y-46699653D01*
X12833999Y-46699658D01*
X12829198Y-46703518D01*
X12696371Y-46861814D01*
X12693408Y-46867203D01*
X12693405Y-46867208D01*
X12624414Y-46992703D01*
X12574068Y-47042762D01*
X12504651Y-47057655D01*
X12438202Y-47032654D01*
X12395818Y-46975697D01*
X12387999Y-46932002D01*
X12387999Y-46565331D01*
X12387629Y-46558510D01*
X12382105Y-46507648D01*
X12378479Y-46492396D01*
X12333324Y-46371946D01*
X12324786Y-46356351D01*
X12248285Y-46254276D01*
X12235724Y-46241715D01*
X12133649Y-46165214D01*
X12118054Y-46156676D01*
X11997606Y-46111522D01*
X11982351Y-46107895D01*
X11931486Y-46102369D01*
X11924672Y-46102000D01*
X11302115Y-46102000D01*
X11286876Y-46106475D01*
X11285671Y-46107865D01*
X11284000Y-46115548D01*
X11284000Y-48799884D01*
X10776000Y-48799884D01*
X10776000Y-47732115D01*
X10771525Y-47716876D01*
X10770135Y-47715671D01*
X10762452Y-47714000D01*
X9690116Y-47714000D01*
X9674877Y-47718475D01*
X9673672Y-47719865D01*
X9672001Y-47727548D01*
X9672001Y-48354669D01*
X4196147Y-48354669D01*
X4366627Y-48184189D01*
X4521245Y-47977645D01*
X4644894Y-47751198D01*
X4735058Y-47509459D01*
X4738625Y-47493066D01*
X4788945Y-47261743D01*
X4789901Y-47257349D01*
X4794869Y-47187885D01*
X9672000Y-47187885D01*
X9676475Y-47203124D01*
X9677865Y-47204329D01*
X9685548Y-47206000D01*
X10757885Y-47206000D01*
X10773124Y-47201525D01*
X10774329Y-47200135D01*
X10776000Y-47192452D01*
X10776000Y-46120116D01*
X10771525Y-46104877D01*
X10770135Y-46103672D01*
X10762452Y-46102001D01*
X10135331Y-46102001D01*
X10128510Y-46102371D01*
X10077648Y-46107895D01*
X10062396Y-46111521D01*
X9941946Y-46156676D01*
X9926351Y-46165214D01*
X9824276Y-46241715D01*
X9811715Y-46254276D01*
X9735214Y-46356351D01*
X9726676Y-46371946D01*
X9681522Y-46492394D01*
X9677895Y-46507649D01*
X9672369Y-46558514D01*
X9672000Y-46565328D01*
X9672000Y-47187885D01*
X4794869Y-47187885D01*
X4807950Y-47004992D01*
X4808698Y-47005045D01*
X4808450Y-47002833D01*
X4808938Y-47000729D01*
X4808939Y-47000000D01*
X4808455Y-46997879D01*
X4808681Y-46995915D01*
X4808018Y-46995962D01*
X4790222Y-46747139D01*
X4789901Y-46742651D01*
X4755001Y-46582217D01*
X4736015Y-46494938D01*
X4736013Y-46494932D01*
X4735058Y-46490541D01*
X4732594Y-46483933D01*
X4646465Y-46253014D01*
X4644894Y-46248802D01*
X4521245Y-46022355D01*
X4366627Y-45815811D01*
X4184189Y-45633373D01*
X3977645Y-45478755D01*
X3869195Y-45419537D01*
X3755143Y-45357260D01*
X3755142Y-45357259D01*
X3751198Y-45355106D01*
X3678497Y-45327990D01*
X3513677Y-45266515D01*
X3513674Y-45266514D01*
X3509459Y-45264942D01*
X3505068Y-45263987D01*
X3505062Y-45263985D01*
X3289132Y-45217013D01*
X3257349Y-45210099D01*
X3000000Y-45191693D01*
X2742651Y-45210099D01*
X2710868Y-45217013D01*
X2494938Y-45263985D01*
X2494932Y-45263987D01*
X2490541Y-45264942D01*
X2486326Y-45266514D01*
X2486323Y-45266515D01*
X2321503Y-45327990D01*
X2248802Y-45355106D01*
X2244858Y-45357259D01*
X2244857Y-45357260D01*
X2130805Y-45419537D01*
X2022355Y-45478755D01*
X1815811Y-45633373D01*
X1633373Y-45815811D01*
X1478755Y-46022355D01*
X1355106Y-46248802D01*
X1353535Y-46253014D01*
X1267407Y-46483933D01*
X1264942Y-46490541D01*
X1263987Y-46494932D01*
X1263985Y-46494938D01*
X1244999Y-46582217D01*
X1210099Y-46742651D01*
X1192016Y-46995481D01*
X1191061Y-46999635D01*
X208856Y-46999635D01*
X206854Y-46990861D01*
X203700Y-46962846D01*
X203700Y-43075000D01*
X25666091Y-43075000D01*
X25686839Y-43232597D01*
X25747669Y-43379454D01*
X25844436Y-43505564D01*
X25970545Y-43602331D01*
X26043974Y-43632746D01*
X26109773Y-43660001D01*
X26109776Y-43660002D01*
X26117403Y-43663161D01*
X26275000Y-43683909D01*
X26283188Y-43682831D01*
X26424409Y-43664239D01*
X26432597Y-43663161D01*
X26440224Y-43660002D01*
X26440227Y-43660001D01*
X26506026Y-43632746D01*
X26579455Y-43602331D01*
X26705564Y-43505564D01*
X26802331Y-43379454D01*
X26863161Y-43232597D01*
X26883909Y-43075000D01*
X26868502Y-42957971D01*
X26879441Y-42887822D01*
X26904329Y-42852430D01*
X27714554Y-42042205D01*
X27776866Y-42008179D01*
X27803649Y-42005300D01*
X28971710Y-42005300D01*
X28974535Y-42005507D01*
X28979628Y-42007256D01*
X29029357Y-42005389D01*
X29034083Y-42005300D01*
X29053393Y-42005300D01*
X29058180Y-42004408D01*
X29061898Y-42004167D01*
X29093282Y-42002989D01*
X29103974Y-41998395D01*
X29108059Y-41997475D01*
X29121475Y-41993399D01*
X29125374Y-41991894D01*
X29136811Y-41989764D01*
X29158253Y-41976547D01*
X29174632Y-41968039D01*
X29189604Y-41961607D01*
X29189608Y-41961604D01*
X29197779Y-41958094D01*
X29202744Y-41954015D01*
X29205070Y-41951689D01*
X29205185Y-41951598D01*
X29207193Y-41949777D01*
X29207316Y-41949913D01*
X29217250Y-41942060D01*
X29223723Y-41936190D01*
X29233628Y-41930085D01*
X29250542Y-41907842D01*
X29261736Y-41895023D01*
X33806759Y-37350000D01*
X35791091Y-37350000D01*
X35811839Y-37507597D01*
X35872669Y-37654454D01*
X35969436Y-37780564D01*
X36095545Y-37877331D01*
X36168974Y-37907746D01*
X36234773Y-37935001D01*
X36234776Y-37935002D01*
X36242403Y-37938161D01*
X36400000Y-37958909D01*
X36408188Y-37957831D01*
X36549409Y-37939239D01*
X36557597Y-37938161D01*
X36565224Y-37935002D01*
X36565227Y-37935001D01*
X36631026Y-37907746D01*
X36704455Y-37877331D01*
X36830564Y-37780564D01*
X36927331Y-37654454D01*
X36988161Y-37507597D01*
X37008909Y-37350000D01*
X36996410Y-37255062D01*
X37007349Y-37184915D01*
X37032237Y-37149522D01*
X37960627Y-36221133D01*
X38928200Y-35253560D01*
X38930345Y-35251709D01*
X38935180Y-35249345D01*
X38969022Y-35212863D01*
X38972302Y-35209458D01*
X38985957Y-35195803D01*
X38988714Y-35191784D01*
X38991166Y-35188992D01*
X39004616Y-35174493D01*
X39004618Y-35174490D01*
X39012528Y-35165963D01*
X39016838Y-35155161D01*
X39019068Y-35151633D01*
X39025684Y-35139240D01*
X39027373Y-35135428D01*
X39033956Y-35125832D01*
X39039774Y-35101317D01*
X39045338Y-35083725D01*
X39054673Y-35060327D01*
X39055300Y-35053932D01*
X39055300Y-35050636D01*
X39055318Y-35050483D01*
X39055450Y-35047780D01*
X39055633Y-35047789D01*
X39057103Y-35035232D01*
X39057530Y-35026493D01*
X39060217Y-35015172D01*
X39057089Y-34992184D01*
X39056451Y-34987500D01*
X39055300Y-34970509D01*
X39055300Y-29098487D01*
X39075302Y-29030366D01*
X39128958Y-28983873D01*
X39199232Y-28973769D01*
X39258002Y-28998523D01*
X39295545Y-29027331D01*
X39368974Y-29057746D01*
X39434773Y-29085001D01*
X39434776Y-29085002D01*
X39442403Y-29088161D01*
X39600000Y-29108909D01*
X39608188Y-29107831D01*
X39608189Y-29107831D01*
X39653545Y-29101860D01*
X39723694Y-29112800D01*
X39759086Y-29137687D01*
X44326832Y-33705433D01*
X44339509Y-33721129D01*
X44342326Y-33724225D01*
X44347975Y-33732974D01*
X44356153Y-33739421D01*
X44372372Y-33752207D01*
X44376399Y-33755785D01*
X44376482Y-33755687D01*
X44380441Y-33759042D01*
X44384119Y-33762720D01*
X44388343Y-33765739D01*
X44388353Y-33765747D01*
X44398694Y-33773136D01*
X44403438Y-33776697D01*
X44441075Y-33806368D01*
X44449180Y-33809214D01*
X44456171Y-33814210D01*
X44496682Y-33826325D01*
X44502062Y-33827934D01*
X44507707Y-33829768D01*
X44545447Y-33843021D01*
X44545450Y-33843022D01*
X44552929Y-33845648D01*
X44558148Y-33846100D01*
X44560859Y-33846100D01*
X44563136Y-33846198D01*
X44563585Y-33846333D01*
X44563583Y-33846387D01*
X44563816Y-33846402D01*
X44569752Y-33848177D01*
X44620150Y-33846197D01*
X44625096Y-33846100D01*
X45511340Y-33846100D01*
X45579461Y-33866102D01*
X45623407Y-33914506D01*
X45700010Y-34063560D01*
X45703835Y-34068386D01*
X45703837Y-34068389D01*
X45824535Y-34220672D01*
X45828364Y-34225503D01*
X45985730Y-34359431D01*
X46166111Y-34460243D01*
X46362639Y-34524099D01*
X46567826Y-34548566D01*
X46573961Y-34548094D01*
X46573963Y-34548094D01*
X46767715Y-34533185D01*
X46767718Y-34533184D01*
X46773858Y-34532712D01*
X46972887Y-34477143D01*
X47157332Y-34383973D01*
X47184899Y-34362436D01*
X47315307Y-34260550D01*
X47315308Y-34260549D01*
X47320168Y-34256752D01*
X47455191Y-34100325D01*
X47557260Y-33920652D01*
X47622486Y-33724575D01*
X47648385Y-33519563D01*
X47648798Y-33490000D01*
X47628633Y-33284345D01*
X47568907Y-33086523D01*
X47520401Y-32995296D01*
X47474789Y-32909512D01*
X47474786Y-32909508D01*
X47471895Y-32904070D01*
X47468005Y-32899300D01*
X47468002Y-32899296D01*
X47345187Y-32748710D01*
X47345184Y-32748707D01*
X47341292Y-32743935D01*
X47336543Y-32740006D01*
X47186822Y-32616146D01*
X47186819Y-32616144D01*
X47182072Y-32612217D01*
X47176647Y-32609284D01*
X47176643Y-32609281D01*
X47057453Y-32544834D01*
X47007044Y-32494840D01*
X46991667Y-32425528D01*
X47016204Y-32358906D01*
X47072863Y-32316126D01*
X47117382Y-32307999D01*
X47484669Y-32307999D01*
X47491490Y-32307629D01*
X47542352Y-32302105D01*
X47557604Y-32298479D01*
X47678054Y-32253324D01*
X47693649Y-32244786D01*
X47795724Y-32168285D01*
X47808285Y-32155724D01*
X47884786Y-32053649D01*
X47893324Y-32038054D01*
X47938478Y-31917606D01*
X47942105Y-31902351D01*
X47947631Y-31851486D01*
X47948000Y-31844672D01*
X47948000Y-31222115D01*
X47943525Y-31206876D01*
X47942135Y-31205671D01*
X47934452Y-31204000D01*
X45250116Y-31204000D01*
X45234877Y-31208475D01*
X45233672Y-31209865D01*
X45232001Y-31217548D01*
X45232001Y-31844669D01*
X45232371Y-31851490D01*
X45237895Y-31902352D01*
X45241521Y-31917604D01*
X45286676Y-32038054D01*
X45295214Y-32053649D01*
X45371715Y-32155724D01*
X45384276Y-32168285D01*
X45486351Y-32244786D01*
X45501946Y-32253324D01*
X45622394Y-32298478D01*
X45637649Y-32302105D01*
X45688514Y-32307631D01*
X45695328Y-32308000D01*
X46063526Y-32308000D01*
X46131647Y-32328002D01*
X46178140Y-32381658D01*
X46188244Y-32451932D01*
X46158750Y-32516512D01*
X46121903Y-32545661D01*
X46010241Y-32604036D01*
X46005441Y-32607896D01*
X46005440Y-32607896D01*
X46000066Y-32612217D01*
X45849198Y-32733518D01*
X45845239Y-32738236D01*
X45845238Y-32738237D01*
X45750087Y-32851633D01*
X45716371Y-32891814D01*
X45713408Y-32897203D01*
X45713405Y-32897208D01*
X45619182Y-33068601D01*
X45568837Y-33118659D01*
X45508767Y-33133900D01*
X44814691Y-33133900D01*
X44746570Y-33113898D01*
X44725596Y-33096995D01*
X42306487Y-30677885D01*
X45232000Y-30677885D01*
X45236475Y-30693124D01*
X45237865Y-30694329D01*
X45245548Y-30696000D01*
X46317885Y-30696000D01*
X46333124Y-30691525D01*
X46334329Y-30690135D01*
X46336000Y-30682452D01*
X46336000Y-30677885D01*
X46844000Y-30677885D01*
X46848475Y-30693124D01*
X46849865Y-30694329D01*
X46857548Y-30696000D01*
X47929884Y-30696000D01*
X47945123Y-30691525D01*
X47946328Y-30690135D01*
X47947999Y-30682452D01*
X47947999Y-30055331D01*
X47947629Y-30048510D01*
X47942105Y-29997648D01*
X47938479Y-29982396D01*
X47893324Y-29861946D01*
X47884786Y-29846351D01*
X47808285Y-29744276D01*
X47795724Y-29731715D01*
X47693649Y-29655214D01*
X47678054Y-29646676D01*
X47557606Y-29601522D01*
X47542351Y-29597895D01*
X47491486Y-29592369D01*
X47484672Y-29592000D01*
X46862115Y-29592000D01*
X46846876Y-29596475D01*
X46845671Y-29597865D01*
X46844000Y-29605548D01*
X46844000Y-30677885D01*
X46336000Y-30677885D01*
X46336000Y-29610116D01*
X46331525Y-29594877D01*
X46330135Y-29593672D01*
X46322452Y-29592001D01*
X45695331Y-29592001D01*
X45688510Y-29592371D01*
X45637648Y-29597895D01*
X45622396Y-29601521D01*
X45501946Y-29646676D01*
X45486351Y-29655214D01*
X45384276Y-29731715D01*
X45371715Y-29744276D01*
X45295214Y-29846351D01*
X45286676Y-29861946D01*
X45241522Y-29982394D01*
X45237895Y-29997649D01*
X45232369Y-30048514D01*
X45232000Y-30055328D01*
X45232000Y-30677885D01*
X42306487Y-30677885D01*
X40243504Y-28614902D01*
X40209478Y-28552590D01*
X40207971Y-28516447D01*
X40207831Y-28516447D01*
X40207831Y-28513082D01*
X40207676Y-28509364D01*
X40207831Y-28508186D01*
X40208909Y-28500000D01*
X40188161Y-28342403D01*
X40127331Y-28195546D01*
X40030564Y-28069436D01*
X39904455Y-27972669D01*
X39831026Y-27942254D01*
X39765227Y-27914999D01*
X39765224Y-27914998D01*
X39757597Y-27911839D01*
X39600000Y-27891091D01*
X39442403Y-27911839D01*
X39434776Y-27914998D01*
X39434773Y-27914999D01*
X39368975Y-27942254D01*
X39295546Y-27972669D01*
X39288995Y-27977696D01*
X39258004Y-28001476D01*
X39191784Y-28027076D01*
X39122235Y-28012811D01*
X39071439Y-27963210D01*
X39055300Y-27901513D01*
X39055300Y-21684669D01*
X45232001Y-21684669D01*
X45232371Y-21691490D01*
X45237895Y-21742352D01*
X45241521Y-21757604D01*
X45286676Y-21878054D01*
X45295214Y-21893649D01*
X45371715Y-21995724D01*
X45384276Y-22008285D01*
X45486351Y-22084786D01*
X45501946Y-22093324D01*
X45622394Y-22138478D01*
X45637649Y-22142105D01*
X45688514Y-22147631D01*
X45695328Y-22148000D01*
X46063526Y-22148000D01*
X46131647Y-22168002D01*
X46178140Y-22221658D01*
X46188244Y-22291932D01*
X46158750Y-22356512D01*
X46121903Y-22385661D01*
X46010241Y-22444036D01*
X46005441Y-22447896D01*
X46005440Y-22447896D01*
X46000066Y-22452217D01*
X45849198Y-22573518D01*
X45716371Y-22731814D01*
X45713408Y-22737203D01*
X45713405Y-22737208D01*
X45706641Y-22749512D01*
X45616821Y-22912895D01*
X45554339Y-23109864D01*
X45553653Y-23115981D01*
X45553652Y-23115985D01*
X45531992Y-23309092D01*
X45531305Y-23315217D01*
X45531821Y-23321361D01*
X45548080Y-23514994D01*
X45548081Y-23514999D01*
X45548596Y-23521133D01*
X45550294Y-23527053D01*
X45596060Y-23686656D01*
X45605555Y-23719770D01*
X45700010Y-23903560D01*
X45703835Y-23908386D01*
X45703837Y-23908389D01*
X45824535Y-24060672D01*
X45828364Y-24065503D01*
X45985730Y-24199431D01*
X46166111Y-24300243D01*
X46362639Y-24364099D01*
X46567826Y-24388566D01*
X46573961Y-24388094D01*
X46573963Y-24388094D01*
X46767715Y-24373185D01*
X46767718Y-24373184D01*
X46773858Y-24372712D01*
X46972887Y-24317143D01*
X47157332Y-24223973D01*
X47184899Y-24202436D01*
X47315307Y-24100550D01*
X47315308Y-24100549D01*
X47320168Y-24096752D01*
X47455191Y-23940325D01*
X47557260Y-23760652D01*
X47622486Y-23564575D01*
X47648385Y-23359563D01*
X47648798Y-23330000D01*
X47628633Y-23124345D01*
X47568907Y-22926523D01*
X47471895Y-22744070D01*
X47468005Y-22739300D01*
X47468002Y-22739296D01*
X47345187Y-22588710D01*
X47345184Y-22588707D01*
X47341292Y-22583935D01*
X47336543Y-22580006D01*
X47186822Y-22456146D01*
X47186819Y-22456144D01*
X47182072Y-22452217D01*
X47176647Y-22449284D01*
X47176643Y-22449281D01*
X47057453Y-22384834D01*
X47007044Y-22334840D01*
X46991667Y-22265528D01*
X47016204Y-22198906D01*
X47072863Y-22156126D01*
X47117382Y-22147999D01*
X47484669Y-22147999D01*
X47491490Y-22147629D01*
X47542352Y-22142105D01*
X47557604Y-22138479D01*
X47678054Y-22093324D01*
X47693649Y-22084786D01*
X47795724Y-22008285D01*
X47808285Y-21995724D01*
X47884786Y-21893649D01*
X47893324Y-21878054D01*
X47938478Y-21757606D01*
X47942105Y-21742351D01*
X47947631Y-21691486D01*
X47948000Y-21684672D01*
X47948000Y-21062115D01*
X47943525Y-21046876D01*
X47942135Y-21045671D01*
X47934452Y-21044000D01*
X45250116Y-21044000D01*
X45234877Y-21048475D01*
X45233672Y-21049865D01*
X45232001Y-21057548D01*
X45232001Y-21684669D01*
X39055300Y-21684669D01*
X39055300Y-20517885D01*
X45232000Y-20517885D01*
X45236475Y-20533124D01*
X45237865Y-20534329D01*
X45245548Y-20536000D01*
X46317885Y-20536000D01*
X46333124Y-20531525D01*
X46334329Y-20530135D01*
X46336000Y-20522452D01*
X46336000Y-20517885D01*
X46844000Y-20517885D01*
X46848475Y-20533124D01*
X46849865Y-20534329D01*
X46857548Y-20536000D01*
X47929884Y-20536000D01*
X47945123Y-20531525D01*
X47946328Y-20530135D01*
X47947999Y-20522452D01*
X47947999Y-19895331D01*
X47947629Y-19888510D01*
X47942105Y-19837648D01*
X47938479Y-19822396D01*
X47893324Y-19701946D01*
X47884786Y-19686351D01*
X47808285Y-19584276D01*
X47795724Y-19571715D01*
X47693649Y-19495214D01*
X47678054Y-19486676D01*
X47557606Y-19441522D01*
X47542351Y-19437895D01*
X47491486Y-19432369D01*
X47484672Y-19432000D01*
X46862115Y-19432000D01*
X46846876Y-19436475D01*
X46845671Y-19437865D01*
X46844000Y-19445548D01*
X46844000Y-20517885D01*
X46336000Y-20517885D01*
X46336000Y-19450116D01*
X46331525Y-19434877D01*
X46330135Y-19433672D01*
X46322452Y-19432001D01*
X45695331Y-19432001D01*
X45688510Y-19432371D01*
X45637648Y-19437895D01*
X45622396Y-19441521D01*
X45501946Y-19486676D01*
X45486351Y-19495214D01*
X45384276Y-19571715D01*
X45371715Y-19584276D01*
X45295214Y-19686351D01*
X45286676Y-19701946D01*
X45241522Y-19822394D01*
X45237895Y-19837649D01*
X45232369Y-19888514D01*
X45232000Y-19895328D01*
X45232000Y-20517885D01*
X39055300Y-20517885D01*
X39055300Y-16088819D01*
X39075302Y-16020698D01*
X39104594Y-15988858D01*
X39180564Y-15930564D01*
X39189556Y-15918846D01*
X39272304Y-15811005D01*
X39277331Y-15804454D01*
X39317907Y-15706495D01*
X39335001Y-15665227D01*
X39335002Y-15665224D01*
X39338161Y-15657597D01*
X39358909Y-15500000D01*
X39338161Y-15342403D01*
X39325743Y-15312422D01*
X39280491Y-15203176D01*
X39277331Y-15195546D01*
X39180564Y-15069436D01*
X39054455Y-14972669D01*
X38981026Y-14942254D01*
X38915227Y-14914999D01*
X38915224Y-14914998D01*
X38907597Y-14911839D01*
X38750000Y-14891091D01*
X38592403Y-14911839D01*
X38584776Y-14914998D01*
X38584773Y-14914999D01*
X38518974Y-14942254D01*
X38445546Y-14972669D01*
X38319436Y-15069436D01*
X38222669Y-15195546D01*
X38219509Y-15203176D01*
X38174258Y-15312422D01*
X38161839Y-15342403D01*
X38141091Y-15500000D01*
X38161839Y-15657597D01*
X38164998Y-15665224D01*
X38164999Y-15665227D01*
X38182093Y-15706495D01*
X38222669Y-15804454D01*
X38227696Y-15811005D01*
X38310445Y-15918846D01*
X38319436Y-15930564D01*
X38395406Y-15988858D01*
X38437272Y-16046195D01*
X38444700Y-16088819D01*
X38444700Y-34821351D01*
X38424698Y-34889472D01*
X38407795Y-34910446D01*
X36600477Y-36717763D01*
X36538165Y-36751789D01*
X36494938Y-36753590D01*
X36400000Y-36741091D01*
X36242403Y-36761839D01*
X36234776Y-36764998D01*
X36234773Y-36764999D01*
X36223912Y-36769498D01*
X36095546Y-36822669D01*
X35969436Y-36919436D01*
X35872669Y-37045546D01*
X35811839Y-37192403D01*
X35791091Y-37350000D01*
X33806759Y-37350000D01*
X37178196Y-33978563D01*
X37180343Y-33976709D01*
X37185180Y-33974345D01*
X37219035Y-33937849D01*
X37222315Y-33934444D01*
X37235956Y-33920803D01*
X37238711Y-33916787D01*
X37241166Y-33913991D01*
X37254615Y-33899493D01*
X37262528Y-33890963D01*
X37266839Y-33880157D01*
X37269074Y-33876622D01*
X37275681Y-33864249D01*
X37277376Y-33860424D01*
X37283956Y-33850832D01*
X37289772Y-33826325D01*
X37295337Y-33808729D01*
X37301378Y-33793587D01*
X37301379Y-33793584D01*
X37304673Y-33785327D01*
X37305300Y-33778932D01*
X37305300Y-33775638D01*
X37305318Y-33775487D01*
X37305450Y-33772780D01*
X37305633Y-33772789D01*
X37307103Y-33760234D01*
X37307530Y-33751493D01*
X37310217Y-33740173D01*
X37306451Y-33712500D01*
X37305300Y-33695510D01*
X37305300Y-11524669D01*
X45232001Y-11524669D01*
X45232371Y-11531490D01*
X45237895Y-11582352D01*
X45241521Y-11597604D01*
X45286676Y-11718054D01*
X45295214Y-11733649D01*
X45371715Y-11835724D01*
X45384276Y-11848285D01*
X45486351Y-11924786D01*
X45501946Y-11933324D01*
X45622394Y-11978478D01*
X45637649Y-11982105D01*
X45688514Y-11987631D01*
X45695328Y-11988000D01*
X46063526Y-11988000D01*
X46131647Y-12008002D01*
X46178140Y-12061658D01*
X46188244Y-12131932D01*
X46158750Y-12196512D01*
X46121903Y-12225661D01*
X46010241Y-12284036D01*
X46005441Y-12287896D01*
X46005440Y-12287896D01*
X46000066Y-12292217D01*
X45849198Y-12413518D01*
X45716371Y-12571814D01*
X45713408Y-12577203D01*
X45713405Y-12577208D01*
X45706641Y-12589512D01*
X45616821Y-12752895D01*
X45554339Y-12949864D01*
X45553653Y-12955981D01*
X45553652Y-12955985D01*
X45531992Y-13149092D01*
X45531305Y-13155217D01*
X45531821Y-13161361D01*
X45548080Y-13354994D01*
X45548081Y-13354999D01*
X45548596Y-13361133D01*
X45550294Y-13367053D01*
X45601636Y-13546102D01*
X45605555Y-13559770D01*
X45700010Y-13743560D01*
X45703835Y-13748386D01*
X45703837Y-13748389D01*
X45824535Y-13900672D01*
X45828364Y-13905503D01*
X45985730Y-14039431D01*
X46166111Y-14140243D01*
X46362639Y-14204099D01*
X46567826Y-14228566D01*
X46573961Y-14228094D01*
X46573963Y-14228094D01*
X46767715Y-14213185D01*
X46767718Y-14213184D01*
X46773858Y-14212712D01*
X46972887Y-14157143D01*
X47157332Y-14063973D01*
X47184899Y-14042436D01*
X47315307Y-13940550D01*
X47315308Y-13940549D01*
X47320168Y-13936752D01*
X47455191Y-13780325D01*
X47557260Y-13600652D01*
X47622486Y-13404575D01*
X47648385Y-13199563D01*
X47648798Y-13170000D01*
X47628633Y-12964345D01*
X47604161Y-12883288D01*
X47570688Y-12772422D01*
X47568907Y-12766523D01*
X47471895Y-12584070D01*
X47468005Y-12579300D01*
X47468002Y-12579296D01*
X47345187Y-12428710D01*
X47345184Y-12428707D01*
X47341292Y-12423935D01*
X47336543Y-12420006D01*
X47186822Y-12296146D01*
X47186819Y-12296144D01*
X47182072Y-12292217D01*
X47176647Y-12289284D01*
X47176643Y-12289281D01*
X47057453Y-12224834D01*
X47007044Y-12174840D01*
X46991667Y-12105528D01*
X47016204Y-12038906D01*
X47072863Y-11996126D01*
X47117382Y-11987999D01*
X47484669Y-11987999D01*
X47491490Y-11987629D01*
X47542352Y-11982105D01*
X47557604Y-11978479D01*
X47678054Y-11933324D01*
X47693649Y-11924786D01*
X47795724Y-11848285D01*
X47808285Y-11835724D01*
X47884786Y-11733649D01*
X47893324Y-11718054D01*
X47938478Y-11597606D01*
X47942105Y-11582351D01*
X47947631Y-11531486D01*
X47948000Y-11524672D01*
X47948000Y-10902115D01*
X47943525Y-10886876D01*
X47942135Y-10885671D01*
X47934452Y-10884000D01*
X45250116Y-10884000D01*
X45234877Y-10888475D01*
X45233672Y-10889865D01*
X45232001Y-10897548D01*
X45232001Y-11524669D01*
X37305300Y-11524669D01*
X37305300Y-11388819D01*
X37325302Y-11320698D01*
X37354594Y-11288858D01*
X37430564Y-11230564D01*
X37527331Y-11104454D01*
X37588161Y-10957597D01*
X37608909Y-10800000D01*
X37588161Y-10642403D01*
X37527331Y-10495546D01*
X37430564Y-10369436D01*
X37415510Y-10357885D01*
X45232000Y-10357885D01*
X45236475Y-10373124D01*
X45237865Y-10374329D01*
X45245548Y-10376000D01*
X46317885Y-10376000D01*
X46333124Y-10371525D01*
X46334329Y-10370135D01*
X46336000Y-10362452D01*
X46336000Y-10357885D01*
X46844000Y-10357885D01*
X46848475Y-10373124D01*
X46849865Y-10374329D01*
X46857548Y-10376000D01*
X47929884Y-10376000D01*
X47945123Y-10371525D01*
X47946328Y-10370135D01*
X47947999Y-10362452D01*
X47947999Y-9735331D01*
X47947629Y-9728510D01*
X47942105Y-9677648D01*
X47938479Y-9662396D01*
X47893324Y-9541946D01*
X47884786Y-9526351D01*
X47808285Y-9424276D01*
X47795724Y-9411715D01*
X47693649Y-9335214D01*
X47678054Y-9326676D01*
X47557606Y-9281522D01*
X47542351Y-9277895D01*
X47491486Y-9272369D01*
X47484672Y-9272000D01*
X46862115Y-9272000D01*
X46846876Y-9276475D01*
X46845671Y-9277865D01*
X46844000Y-9285548D01*
X46844000Y-10357885D01*
X46336000Y-10357885D01*
X46336000Y-9290116D01*
X46331525Y-9274877D01*
X46330135Y-9273672D01*
X46322452Y-9272001D01*
X45695331Y-9272001D01*
X45688510Y-9272371D01*
X45637648Y-9277895D01*
X45622396Y-9281521D01*
X45501946Y-9326676D01*
X45486351Y-9335214D01*
X45384276Y-9411715D01*
X45371715Y-9424276D01*
X45295214Y-9526351D01*
X45286676Y-9541946D01*
X45241522Y-9662394D01*
X45237895Y-9677649D01*
X45232369Y-9728514D01*
X45232000Y-9735328D01*
X45232000Y-10357885D01*
X37415510Y-10357885D01*
X37304455Y-10272669D01*
X37225292Y-10239879D01*
X37165227Y-10214999D01*
X37165224Y-10214998D01*
X37157597Y-10211839D01*
X37000000Y-10191091D01*
X36842403Y-10211839D01*
X36834776Y-10214998D01*
X36834773Y-10214999D01*
X36774708Y-10239879D01*
X36695546Y-10272669D01*
X36608004Y-10339842D01*
X36541783Y-10365442D01*
X36472235Y-10351177D01*
X36421439Y-10301576D01*
X36405300Y-10239879D01*
X36405300Y-9753281D01*
X36405507Y-9750462D01*
X36407255Y-9745371D01*
X36406623Y-9728514D01*
X36405389Y-9695658D01*
X36405300Y-9690932D01*
X36405300Y-9671607D01*
X36404409Y-9666821D01*
X36404167Y-9663092D01*
X36403425Y-9643342D01*
X36402989Y-9631718D01*
X36398397Y-9621029D01*
X36397478Y-9616952D01*
X36393399Y-9603525D01*
X36391894Y-9599626D01*
X36389764Y-9588189D01*
X36376547Y-9566747D01*
X36368039Y-9550368D01*
X36361607Y-9535396D01*
X36361604Y-9535392D01*
X36358094Y-9527221D01*
X36354015Y-9522256D01*
X36351689Y-9519930D01*
X36351598Y-9519815D01*
X36349777Y-9517807D01*
X36349913Y-9517684D01*
X36342060Y-9507750D01*
X36336190Y-9501277D01*
X36330085Y-9491372D01*
X36307842Y-9474458D01*
X36295023Y-9463264D01*
X35832237Y-9000478D01*
X35798211Y-8938166D01*
X35796410Y-8894936D01*
X35807831Y-8808187D01*
X35808909Y-8800000D01*
X35788161Y-8642403D01*
X35767451Y-8592403D01*
X35730491Y-8503176D01*
X35727331Y-8495546D01*
X35661868Y-8410232D01*
X35635591Y-8375987D01*
X35635590Y-8375986D01*
X35630564Y-8369436D01*
X35504455Y-8272669D01*
X35431026Y-8242254D01*
X35365227Y-8214999D01*
X35365224Y-8214998D01*
X35357597Y-8211839D01*
X35200000Y-8191091D01*
X35042403Y-8211839D01*
X35034776Y-8214998D01*
X35034773Y-8214999D01*
X34968974Y-8242254D01*
X34895546Y-8272669D01*
X34769436Y-8369436D01*
X34672669Y-8495546D01*
X34669509Y-8503176D01*
X34632550Y-8592403D01*
X34611839Y-8642403D01*
X34591091Y-8800000D01*
X34611839Y-8957597D01*
X34672669Y-9104454D01*
X34769436Y-9230564D01*
X34895545Y-9327331D01*
X34924294Y-9339239D01*
X35034773Y-9385001D01*
X35034776Y-9385002D01*
X35042403Y-9388161D01*
X35200000Y-9408909D01*
X35294938Y-9396410D01*
X35365085Y-9407349D01*
X35400478Y-9432237D01*
X35757795Y-9789554D01*
X35791821Y-9851866D01*
X35794700Y-9878649D01*
X35794700Y-32521351D01*
X35774698Y-32589472D01*
X35757795Y-32610446D01*
X29000477Y-39367763D01*
X28938165Y-39401789D01*
X28894938Y-39403590D01*
X28800000Y-39391091D01*
X28642403Y-39411839D01*
X28634776Y-39414998D01*
X28634773Y-39414999D01*
X28568975Y-39442254D01*
X28495546Y-39472669D01*
X28369436Y-39569436D01*
X28272669Y-39695546D01*
X28211839Y-39842403D01*
X28191091Y-40000000D01*
X28211839Y-40157597D01*
X28272669Y-40304454D01*
X28369436Y-40430564D01*
X28495545Y-40527331D01*
X28568974Y-40557746D01*
X28634773Y-40585001D01*
X28634776Y-40585002D01*
X28642403Y-40588161D01*
X28800000Y-40608909D01*
X28808188Y-40607831D01*
X28949409Y-40589239D01*
X28957597Y-40588161D01*
X28965224Y-40585002D01*
X28965227Y-40585001D01*
X29031026Y-40557746D01*
X29104455Y-40527331D01*
X29230564Y-40430564D01*
X29327331Y-40304454D01*
X29388161Y-40157597D01*
X29408909Y-40000000D01*
X29396410Y-39905062D01*
X29407349Y-39834915D01*
X29432237Y-39799522D01*
X36278200Y-32953560D01*
X36280345Y-32951709D01*
X36285180Y-32949345D01*
X36319022Y-32912863D01*
X36322302Y-32909458D01*
X36335957Y-32895803D01*
X36338714Y-32891784D01*
X36341166Y-32888992D01*
X36354616Y-32874493D01*
X36354618Y-32874490D01*
X36362528Y-32865963D01*
X36366838Y-32855161D01*
X36369068Y-32851633D01*
X36375684Y-32839240D01*
X36377373Y-32835428D01*
X36383956Y-32825832D01*
X36389774Y-32801317D01*
X36395338Y-32783725D01*
X36404673Y-32760327D01*
X36405300Y-32753932D01*
X36405300Y-32750636D01*
X36405318Y-32750483D01*
X36405450Y-32747780D01*
X36405633Y-32747789D01*
X36407103Y-32735232D01*
X36407530Y-32726493D01*
X36410217Y-32715172D01*
X36406451Y-32687500D01*
X36405300Y-32670509D01*
X36405300Y-11360120D01*
X36425302Y-11291999D01*
X36478958Y-11245506D01*
X36549232Y-11235402D01*
X36608003Y-11260158D01*
X36645406Y-11288858D01*
X36687272Y-11346196D01*
X36694700Y-11388819D01*
X36694700Y-33546351D01*
X36674698Y-33614472D01*
X36657795Y-33635446D01*
X28935445Y-41357795D01*
X28873133Y-41391821D01*
X28846350Y-41394700D01*
X27678281Y-41394700D01*
X27675462Y-41394493D01*
X27670371Y-41392745D01*
X27658748Y-41393181D01*
X27658746Y-41393181D01*
X27620658Y-41394611D01*
X27615932Y-41394700D01*
X27596607Y-41394700D01*
X27591821Y-41395591D01*
X27588092Y-41395833D01*
X27580335Y-41396124D01*
X27556718Y-41397011D01*
X27546029Y-41401603D01*
X27541952Y-41402522D01*
X27528525Y-41406601D01*
X27524626Y-41408106D01*
X27513189Y-41410236D01*
X27491747Y-41423453D01*
X27475368Y-41431961D01*
X27460396Y-41438393D01*
X27460392Y-41438396D01*
X27452221Y-41441906D01*
X27447256Y-41445985D01*
X27444930Y-41448311D01*
X27444815Y-41448402D01*
X27442807Y-41450223D01*
X27442684Y-41450087D01*
X27432750Y-41457940D01*
X27426277Y-41463810D01*
X27416372Y-41469915D01*
X27399458Y-41492158D01*
X27388271Y-41504970D01*
X26453384Y-42439856D01*
X26391074Y-42473880D01*
X26347845Y-42475681D01*
X26275000Y-42466091D01*
X26117403Y-42486839D01*
X26109776Y-42489998D01*
X26109773Y-42489999D01*
X26043975Y-42517254D01*
X25970546Y-42547669D01*
X25844436Y-42644436D01*
X25747669Y-42770546D01*
X25686839Y-42917403D01*
X25666091Y-43075000D01*
X203700Y-43075000D01*
X203700Y-34972081D01*
X560255Y-34972081D01*
X561333Y-34980269D01*
X565300Y-35010400D01*
X565300Y-35010402D01*
X570666Y-35051157D01*
X580350Y-35124718D01*
X609795Y-35195803D01*
X639266Y-35266954D01*
X644293Y-35273505D01*
X644294Y-35273507D01*
X647924Y-35278237D01*
X664080Y-35299292D01*
X732987Y-35389094D01*
X739537Y-35394120D01*
X739541Y-35394124D01*
X757109Y-35407604D01*
X769501Y-35418472D01*
X1761531Y-36410503D01*
X1772398Y-36422893D01*
X1790906Y-36447013D01*
X1821570Y-36470542D01*
X1913046Y-36540734D01*
X1971962Y-36565138D01*
X2047652Y-36596490D01*
X2047655Y-36596491D01*
X2055282Y-36599650D01*
X2063470Y-36600728D01*
X2169595Y-36614700D01*
X2169600Y-36614700D01*
X2207919Y-36619745D01*
X2216107Y-36618667D01*
X2216108Y-36618667D01*
X2238052Y-36615778D01*
X2254498Y-36614700D01*
X2467928Y-36614700D01*
X2536049Y-36634702D01*
X2566673Y-36662435D01*
X2648364Y-36765503D01*
X2805730Y-36899431D01*
X2986111Y-37000243D01*
X3182639Y-37064099D01*
X3387826Y-37088566D01*
X3393961Y-37088094D01*
X3393963Y-37088094D01*
X3587715Y-37073185D01*
X3587718Y-37073184D01*
X3593858Y-37072712D01*
X3792887Y-37017143D01*
X3977332Y-36923973D01*
X3989569Y-36914413D01*
X4135307Y-36800550D01*
X4135308Y-36800549D01*
X4140168Y-36796752D01*
X4275191Y-36640325D01*
X4278386Y-36634702D01*
X4321964Y-36557990D01*
X4377260Y-36460652D01*
X4442486Y-36264575D01*
X4468385Y-36059563D01*
X4468798Y-36030000D01*
X4448633Y-35824345D01*
X4423776Y-35742013D01*
X4390688Y-35632422D01*
X4388907Y-35626523D01*
X4340401Y-35535297D01*
X4294789Y-35449512D01*
X4294787Y-35449509D01*
X4291895Y-35444070D01*
X4288005Y-35439300D01*
X4288002Y-35439296D01*
X4165187Y-35288710D01*
X4165184Y-35288707D01*
X4161292Y-35283935D01*
X4156543Y-35280006D01*
X4006822Y-35156146D01*
X4006819Y-35156144D01*
X4002072Y-35152217D01*
X3820301Y-35053933D01*
X3721601Y-35023380D01*
X3628788Y-34994650D01*
X3628785Y-34994649D01*
X3622901Y-34992828D01*
X3616776Y-34992184D01*
X3616775Y-34992184D01*
X3423520Y-34971872D01*
X3423519Y-34971872D01*
X3417392Y-34971228D01*
X3331518Y-34979043D01*
X3217742Y-34989397D01*
X3217741Y-34989397D01*
X3211601Y-34989956D01*
X3013367Y-35048300D01*
X2830241Y-35144036D01*
X2669198Y-35273518D01*
X2665239Y-35278236D01*
X2665234Y-35278241D01*
X2579247Y-35380716D01*
X2520138Y-35420043D01*
X2449150Y-35421169D01*
X2393631Y-35388821D01*
X1771605Y-34766796D01*
X1737580Y-34704483D01*
X1734700Y-34677700D01*
X1734700Y-31844669D01*
X2052001Y-31844669D01*
X2052371Y-31851490D01*
X2057895Y-31902352D01*
X2061521Y-31917604D01*
X2106676Y-32038054D01*
X2115214Y-32053649D01*
X2191715Y-32155724D01*
X2204276Y-32168285D01*
X2306351Y-32244786D01*
X2321946Y-32253324D01*
X2442394Y-32298478D01*
X2457649Y-32302105D01*
X2508514Y-32307631D01*
X2515328Y-32308000D01*
X2883526Y-32308000D01*
X2951647Y-32328002D01*
X2998140Y-32381658D01*
X3008244Y-32451932D01*
X2978750Y-32516512D01*
X2941903Y-32545661D01*
X2830241Y-32604036D01*
X2825441Y-32607896D01*
X2825440Y-32607896D01*
X2820066Y-32612217D01*
X2669198Y-32733518D01*
X2665239Y-32738236D01*
X2665238Y-32738237D01*
X2570087Y-32851633D01*
X2536371Y-32891814D01*
X2533408Y-32897203D01*
X2533405Y-32897208D01*
X2440032Y-33067054D01*
X2436821Y-33072895D01*
X2374339Y-33269864D01*
X2373653Y-33275981D01*
X2373652Y-33275985D01*
X2351992Y-33469092D01*
X2351305Y-33475217D01*
X2351821Y-33481361D01*
X2368080Y-33674994D01*
X2368081Y-33674999D01*
X2368596Y-33681133D01*
X2390294Y-33756803D01*
X2422669Y-33869705D01*
X2425555Y-33879770D01*
X2520010Y-34063560D01*
X2523835Y-34068386D01*
X2523837Y-34068389D01*
X2644535Y-34220672D01*
X2648364Y-34225503D01*
X2805730Y-34359431D01*
X2986111Y-34460243D01*
X3182639Y-34524099D01*
X3387826Y-34548566D01*
X3393961Y-34548094D01*
X3393963Y-34548094D01*
X3587715Y-34533185D01*
X3587718Y-34533184D01*
X3593858Y-34532712D01*
X3792887Y-34477143D01*
X3977332Y-34383973D01*
X4004899Y-34362436D01*
X4135307Y-34260550D01*
X4135308Y-34260549D01*
X4140168Y-34256752D01*
X4275191Y-34100325D01*
X4278235Y-34094967D01*
X4374216Y-33926011D01*
X4374217Y-33926008D01*
X4377260Y-33920652D01*
X4377632Y-33919532D01*
X4422497Y-33866753D01*
X4491620Y-33846100D01*
X10533572Y-33846100D01*
X10553621Y-33848234D01*
X10557811Y-33848432D01*
X10567993Y-33850624D01*
X10598840Y-33846973D01*
X10604215Y-33846656D01*
X10604204Y-33846528D01*
X10609382Y-33846100D01*
X10614584Y-33846100D01*
X10625919Y-33844213D01*
X10632243Y-33843161D01*
X10638115Y-33842326D01*
X10675374Y-33837916D01*
X10675381Y-33837914D01*
X10685722Y-33836690D01*
X10693468Y-33832970D01*
X10701942Y-33831560D01*
X10741190Y-33810383D01*
X10744109Y-33808808D01*
X10749396Y-33806115D01*
X10785442Y-33788805D01*
X10785445Y-33788803D01*
X10792590Y-33785372D01*
X10796600Y-33782001D01*
X10798538Y-33780063D01*
X10800189Y-33778548D01*
X10800599Y-33778327D01*
X10800637Y-33778369D01*
X10800820Y-33778208D01*
X10806274Y-33775265D01*
X10815073Y-33765747D01*
X10840532Y-33738205D01*
X10843962Y-33734639D01*
X15385596Y-29193005D01*
X15447908Y-29158979D01*
X15474691Y-29156100D01*
X21350161Y-29156100D01*
X21418282Y-29176102D01*
X21450124Y-29205396D01*
X21469436Y-29230564D01*
X21595545Y-29327331D01*
X21668974Y-29357746D01*
X21734773Y-29385001D01*
X21734776Y-29385002D01*
X21742403Y-29388161D01*
X21900000Y-29408909D01*
X21908188Y-29407831D01*
X22049409Y-29389239D01*
X22057597Y-29388161D01*
X22065224Y-29385002D01*
X22065227Y-29385001D01*
X22131026Y-29357746D01*
X22204455Y-29327331D01*
X22330564Y-29230564D01*
X22427331Y-29104454D01*
X22477277Y-28983873D01*
X22485001Y-28965227D01*
X22485002Y-28965224D01*
X22488161Y-28957597D01*
X22508909Y-28800000D01*
X22488161Y-28642403D01*
X22427331Y-28495546D01*
X22372724Y-28424380D01*
X22335591Y-28375987D01*
X22335590Y-28375986D01*
X22330564Y-28369436D01*
X22204455Y-28272669D01*
X22119498Y-28237479D01*
X22065227Y-28214999D01*
X22065224Y-28214998D01*
X22057597Y-28211839D01*
X21900000Y-28191091D01*
X21742403Y-28211839D01*
X21734776Y-28214998D01*
X21734773Y-28214999D01*
X21680502Y-28237479D01*
X21595546Y-28272669D01*
X21469436Y-28369436D01*
X21464413Y-28375982D01*
X21450124Y-28394604D01*
X21392786Y-28436471D01*
X21350161Y-28443900D01*
X15326432Y-28443900D01*
X15306371Y-28441765D01*
X15302187Y-28441568D01*
X15292007Y-28439376D01*
X15261160Y-28443027D01*
X15255785Y-28443344D01*
X15255796Y-28443472D01*
X15250618Y-28443900D01*
X15245416Y-28443900D01*
X15234081Y-28445787D01*
X15227757Y-28446839D01*
X15221885Y-28447674D01*
X15184626Y-28452084D01*
X15184619Y-28452086D01*
X15174278Y-28453310D01*
X15166532Y-28457030D01*
X15158058Y-28458440D01*
X15119452Y-28479270D01*
X15115891Y-28481192D01*
X15110604Y-28483885D01*
X15074558Y-28501195D01*
X15074555Y-28501197D01*
X15067410Y-28504628D01*
X15063400Y-28507999D01*
X15061462Y-28509937D01*
X15059811Y-28511452D01*
X15059401Y-28511673D01*
X15059363Y-28511631D01*
X15059180Y-28511792D01*
X15053726Y-28514735D01*
X15046658Y-28522382D01*
X15046657Y-28522382D01*
X15019468Y-28551795D01*
X15016038Y-28555361D01*
X10474403Y-33096995D01*
X10412091Y-33131021D01*
X10385308Y-33133900D01*
X4489806Y-33133900D01*
X4421685Y-33113898D01*
X4378555Y-33067054D01*
X4311797Y-32941501D01*
X4291895Y-32904070D01*
X4288005Y-32899300D01*
X4288002Y-32899296D01*
X4165187Y-32748710D01*
X4165184Y-32748707D01*
X4161292Y-32743935D01*
X4156543Y-32740006D01*
X4006822Y-32616146D01*
X4006819Y-32616144D01*
X4002072Y-32612217D01*
X3996647Y-32609284D01*
X3996643Y-32609281D01*
X3877453Y-32544834D01*
X3827044Y-32494840D01*
X3811667Y-32425528D01*
X3836204Y-32358906D01*
X3892863Y-32316126D01*
X3937382Y-32307999D01*
X4304669Y-32307999D01*
X4311490Y-32307629D01*
X4362352Y-32302105D01*
X4377604Y-32298479D01*
X4498054Y-32253324D01*
X4513649Y-32244786D01*
X4615724Y-32168285D01*
X4628285Y-32155724D01*
X4704786Y-32053649D01*
X4713324Y-32038054D01*
X4758478Y-31917606D01*
X4762105Y-31902351D01*
X4767631Y-31851486D01*
X4768000Y-31844672D01*
X4768000Y-31222115D01*
X4763525Y-31206876D01*
X4762135Y-31205671D01*
X4754452Y-31204000D01*
X2070116Y-31204000D01*
X2054877Y-31208475D01*
X2053672Y-31209865D01*
X2052001Y-31217548D01*
X2052001Y-31844669D01*
X1734700Y-31844669D01*
X1734700Y-30677885D01*
X2052000Y-30677885D01*
X2056475Y-30693124D01*
X2057865Y-30694329D01*
X2065548Y-30696000D01*
X3137885Y-30696000D01*
X3153124Y-30691525D01*
X3154329Y-30690135D01*
X3156000Y-30682452D01*
X3156000Y-30677885D01*
X3664000Y-30677885D01*
X3668475Y-30693124D01*
X3669865Y-30694329D01*
X3677548Y-30696000D01*
X4749884Y-30696000D01*
X4765123Y-30691525D01*
X4766328Y-30690135D01*
X4767999Y-30682452D01*
X4767999Y-30055331D01*
X4767629Y-30048510D01*
X4762105Y-29997648D01*
X4758479Y-29982396D01*
X4713324Y-29861946D01*
X4704786Y-29846351D01*
X4628285Y-29744276D01*
X4615724Y-29731715D01*
X4513649Y-29655214D01*
X4498054Y-29646676D01*
X4377606Y-29601522D01*
X4362351Y-29597895D01*
X4311486Y-29592369D01*
X4304672Y-29592000D01*
X3682115Y-29592000D01*
X3666876Y-29596475D01*
X3665671Y-29597865D01*
X3664000Y-29605548D01*
X3664000Y-30677885D01*
X3156000Y-30677885D01*
X3156000Y-29610116D01*
X3151525Y-29594877D01*
X3150135Y-29593672D01*
X3142452Y-29592001D01*
X2515331Y-29592001D01*
X2508510Y-29592371D01*
X2457648Y-29597895D01*
X2442396Y-29601521D01*
X2321946Y-29646676D01*
X2306351Y-29655214D01*
X2204276Y-29731715D01*
X2191715Y-29744276D01*
X2115214Y-29846351D01*
X2106676Y-29861946D01*
X2061522Y-29982394D01*
X2057895Y-29997649D01*
X2052369Y-30048514D01*
X2052000Y-30055328D01*
X2052000Y-30677885D01*
X1734700Y-30677885D01*
X1734700Y-28424380D01*
X1754702Y-28356259D01*
X1771605Y-28335285D01*
X3157382Y-26949509D01*
X3219694Y-26915483D01*
X3261395Y-26913490D01*
X3387826Y-26928566D01*
X3393961Y-26928094D01*
X3393963Y-26928094D01*
X3587715Y-26913185D01*
X3587718Y-26913184D01*
X3593858Y-26912712D01*
X3792887Y-26857143D01*
X3977332Y-26763973D01*
X4004899Y-26742436D01*
X4135307Y-26640550D01*
X4135308Y-26640549D01*
X4140168Y-26636752D01*
X4275191Y-26480325D01*
X4377260Y-26300652D01*
X4442486Y-26104575D01*
X4468385Y-25899563D01*
X4468798Y-25870000D01*
X4448633Y-25664345D01*
X4428313Y-25597040D01*
X4390688Y-25472422D01*
X4388907Y-25466523D01*
X4315060Y-25327637D01*
X4294789Y-25289512D01*
X4294787Y-25289509D01*
X4291895Y-25284070D01*
X4288005Y-25279300D01*
X4288002Y-25279296D01*
X4165187Y-25128710D01*
X4165184Y-25128707D01*
X4161292Y-25123935D01*
X4156543Y-25120006D01*
X4006822Y-24996146D01*
X4006819Y-24996144D01*
X4002072Y-24992217D01*
X3820301Y-24893933D01*
X3721601Y-24863381D01*
X3628788Y-24834650D01*
X3628785Y-24834649D01*
X3622901Y-24832828D01*
X3616776Y-24832184D01*
X3616775Y-24832184D01*
X3423520Y-24811872D01*
X3423519Y-24811872D01*
X3417392Y-24811228D01*
X3290582Y-24822768D01*
X3217742Y-24829397D01*
X3217741Y-24829397D01*
X3211601Y-24829956D01*
X3013367Y-24888300D01*
X2830241Y-24984036D01*
X2669198Y-25113518D01*
X2665239Y-25118236D01*
X2665238Y-25118237D01*
X2562821Y-25240292D01*
X2503711Y-25279618D01*
X2466300Y-25285300D01*
X2139382Y-25285300D01*
X2071261Y-25265298D01*
X2050287Y-25248396D01*
X1771605Y-24969715D01*
X1737580Y-24907402D01*
X1734700Y-24880619D01*
X1734700Y-21684669D01*
X2052001Y-21684669D01*
X2052371Y-21691490D01*
X2057895Y-21742352D01*
X2061521Y-21757604D01*
X2106676Y-21878054D01*
X2115214Y-21893649D01*
X2191715Y-21995724D01*
X2204276Y-22008285D01*
X2306351Y-22084786D01*
X2321946Y-22093324D01*
X2442394Y-22138478D01*
X2457649Y-22142105D01*
X2508514Y-22147631D01*
X2515328Y-22148000D01*
X2883526Y-22148000D01*
X2951647Y-22168002D01*
X2998140Y-22221658D01*
X3008244Y-22291932D01*
X2978750Y-22356512D01*
X2941903Y-22385661D01*
X2830241Y-22444036D01*
X2825441Y-22447896D01*
X2825440Y-22447896D01*
X2820066Y-22452217D01*
X2669198Y-22573518D01*
X2536371Y-22731814D01*
X2533408Y-22737203D01*
X2533405Y-22737208D01*
X2526641Y-22749512D01*
X2436821Y-22912895D01*
X2374339Y-23109864D01*
X2373653Y-23115981D01*
X2373652Y-23115985D01*
X2351992Y-23309092D01*
X2351305Y-23315217D01*
X2351821Y-23321361D01*
X2368080Y-23514994D01*
X2368081Y-23514999D01*
X2368596Y-23521133D01*
X2370294Y-23527053D01*
X2416060Y-23686656D01*
X2425555Y-23719770D01*
X2520010Y-23903560D01*
X2523835Y-23908386D01*
X2523837Y-23908389D01*
X2644535Y-24060672D01*
X2648364Y-24065503D01*
X2805730Y-24199431D01*
X2986111Y-24300243D01*
X3182639Y-24364099D01*
X3387826Y-24388566D01*
X3393961Y-24388094D01*
X3393963Y-24388094D01*
X3587715Y-24373185D01*
X3587718Y-24373184D01*
X3593858Y-24372712D01*
X3792887Y-24317143D01*
X3977332Y-24223973D01*
X4004899Y-24202436D01*
X4135307Y-24100550D01*
X4135308Y-24100549D01*
X4140168Y-24096752D01*
X4275191Y-23940325D01*
X4278235Y-23934967D01*
X4374216Y-23766011D01*
X4374217Y-23766008D01*
X4377260Y-23760652D01*
X4377632Y-23759532D01*
X4422497Y-23706753D01*
X4491620Y-23686100D01*
X6468572Y-23686100D01*
X6488621Y-23688234D01*
X6492811Y-23688432D01*
X6502993Y-23690624D01*
X6533840Y-23686973D01*
X6539215Y-23686656D01*
X6539204Y-23686528D01*
X6544382Y-23686100D01*
X6549584Y-23686100D01*
X6560919Y-23684213D01*
X6567243Y-23683161D01*
X6573115Y-23682326D01*
X6610374Y-23677916D01*
X6610381Y-23677914D01*
X6620722Y-23676690D01*
X6628468Y-23672970D01*
X6636942Y-23671560D01*
X6679109Y-23648808D01*
X6684396Y-23646115D01*
X6720442Y-23628805D01*
X6720445Y-23628803D01*
X6727590Y-23625372D01*
X6731600Y-23622001D01*
X6733538Y-23620063D01*
X6735189Y-23618548D01*
X6735599Y-23618327D01*
X6735637Y-23618369D01*
X6735820Y-23618208D01*
X6741274Y-23615265D01*
X6775532Y-23578205D01*
X6778961Y-23574640D01*
X9160597Y-21193005D01*
X9222909Y-21158979D01*
X9249692Y-21156100D01*
X12150161Y-21156100D01*
X12218282Y-21176102D01*
X12250124Y-21205396D01*
X12269436Y-21230564D01*
X12395545Y-21327331D01*
X12456304Y-21352498D01*
X12534773Y-21385001D01*
X12534776Y-21385002D01*
X12542403Y-21388161D01*
X12700000Y-21408909D01*
X12708188Y-21407831D01*
X12849409Y-21389239D01*
X12857597Y-21388161D01*
X12865224Y-21385002D01*
X12865227Y-21385001D01*
X12943696Y-21352498D01*
X13004455Y-21327331D01*
X13130564Y-21230564D01*
X13227331Y-21104454D01*
X13288161Y-20957597D01*
X13308909Y-20800000D01*
X13288161Y-20642403D01*
X13227331Y-20495546D01*
X13130564Y-20369436D01*
X13004455Y-20272669D01*
X12931026Y-20242254D01*
X12865227Y-20214999D01*
X12865224Y-20214998D01*
X12857597Y-20211839D01*
X12700000Y-20191091D01*
X12542403Y-20211839D01*
X12534776Y-20214998D01*
X12534773Y-20214999D01*
X12468975Y-20242254D01*
X12395546Y-20272669D01*
X12269436Y-20369436D01*
X12264413Y-20375982D01*
X12250124Y-20394604D01*
X12192786Y-20436471D01*
X12150161Y-20443900D01*
X9101427Y-20443900D01*
X9081378Y-20441766D01*
X9077188Y-20441568D01*
X9067006Y-20439376D01*
X9056665Y-20440600D01*
X9036161Y-20443027D01*
X9030783Y-20443344D01*
X9030794Y-20443472D01*
X9025616Y-20443900D01*
X9020416Y-20443900D01*
X9015288Y-20444754D01*
X9015284Y-20444754D01*
X9002739Y-20446842D01*
X8996861Y-20447679D01*
X8978582Y-20449843D01*
X8949277Y-20453311D01*
X8941534Y-20457029D01*
X8933058Y-20458440D01*
X8890874Y-20481202D01*
X8885611Y-20483883D01*
X8861323Y-20495546D01*
X8842409Y-20504628D01*
X8838399Y-20507999D01*
X8836460Y-20509938D01*
X8834808Y-20511453D01*
X8834400Y-20511673D01*
X8834362Y-20511632D01*
X8834181Y-20511792D01*
X8828726Y-20514735D01*
X8821658Y-20522382D01*
X8821657Y-20522382D01*
X8794481Y-20551781D01*
X8791051Y-20555347D01*
X6409403Y-22936995D01*
X6347091Y-22971021D01*
X6320308Y-22973900D01*
X4489806Y-22973900D01*
X4421685Y-22953898D01*
X4378555Y-22907054D01*
X4291895Y-22744070D01*
X4288005Y-22739300D01*
X4288002Y-22739296D01*
X4165187Y-22588710D01*
X4165184Y-22588707D01*
X4161292Y-22583935D01*
X4156543Y-22580006D01*
X4006822Y-22456146D01*
X4006819Y-22456144D01*
X4002072Y-22452217D01*
X3996647Y-22449284D01*
X3996643Y-22449281D01*
X3877453Y-22384834D01*
X3827044Y-22334840D01*
X3811667Y-22265528D01*
X3836204Y-22198906D01*
X3892863Y-22156126D01*
X3937382Y-22147999D01*
X4304669Y-22147999D01*
X4311490Y-22147629D01*
X4362352Y-22142105D01*
X4377604Y-22138479D01*
X4498054Y-22093324D01*
X4513649Y-22084786D01*
X4615724Y-22008285D01*
X4628285Y-21995724D01*
X4704786Y-21893649D01*
X4713324Y-21878054D01*
X4758478Y-21757606D01*
X4762105Y-21742351D01*
X4767631Y-21691486D01*
X4768000Y-21684672D01*
X4768000Y-21062115D01*
X4763525Y-21046876D01*
X4762135Y-21045671D01*
X4754452Y-21044000D01*
X2070116Y-21044000D01*
X2054877Y-21048475D01*
X2053672Y-21049865D01*
X2052001Y-21057548D01*
X2052001Y-21684669D01*
X1734700Y-21684669D01*
X1734700Y-20517885D01*
X2052000Y-20517885D01*
X2056475Y-20533124D01*
X2057865Y-20534329D01*
X2065548Y-20536000D01*
X3137885Y-20536000D01*
X3153124Y-20531525D01*
X3154329Y-20530135D01*
X3156000Y-20522452D01*
X3156000Y-20517885D01*
X3664000Y-20517885D01*
X3668475Y-20533124D01*
X3669865Y-20534329D01*
X3677548Y-20536000D01*
X4749884Y-20536000D01*
X4765123Y-20531525D01*
X4766328Y-20530135D01*
X4767999Y-20522452D01*
X4767999Y-19895331D01*
X4767629Y-19888510D01*
X4762105Y-19837648D01*
X4758479Y-19822396D01*
X4713324Y-19701946D01*
X4704786Y-19686351D01*
X4628285Y-19584276D01*
X4615724Y-19571715D01*
X4513649Y-19495214D01*
X4498054Y-19486676D01*
X4377606Y-19441522D01*
X4362351Y-19437895D01*
X4311486Y-19432369D01*
X4304672Y-19432000D01*
X3682115Y-19432000D01*
X3666876Y-19436475D01*
X3665671Y-19437865D01*
X3664000Y-19445548D01*
X3664000Y-20517885D01*
X3156000Y-20517885D01*
X3156000Y-19450116D01*
X3151525Y-19434877D01*
X3150135Y-19433672D01*
X3142452Y-19432001D01*
X2515331Y-19432001D01*
X2508510Y-19432371D01*
X2457648Y-19437895D01*
X2442396Y-19441521D01*
X2321946Y-19486676D01*
X2306351Y-19495214D01*
X2204276Y-19571715D01*
X2191715Y-19584276D01*
X2115214Y-19686351D01*
X2106676Y-19701946D01*
X2061522Y-19822394D01*
X2057895Y-19837649D01*
X2052369Y-19888514D01*
X2052000Y-19895328D01*
X2052000Y-20517885D01*
X1734700Y-20517885D01*
X1734700Y-18264380D01*
X1754702Y-18196259D01*
X1771605Y-18175285D01*
X3157382Y-16789509D01*
X3219694Y-16755483D01*
X3261395Y-16753490D01*
X3387826Y-16768566D01*
X3393961Y-16768094D01*
X3393963Y-16768094D01*
X3587715Y-16753185D01*
X3587718Y-16753184D01*
X3593858Y-16752712D01*
X3792887Y-16697143D01*
X3977332Y-16603973D01*
X4004899Y-16582436D01*
X4135307Y-16480550D01*
X4135308Y-16480549D01*
X4140168Y-16476752D01*
X4275191Y-16320325D01*
X4377260Y-16140652D01*
X4442486Y-15944575D01*
X4468385Y-15739563D01*
X4468798Y-15710000D01*
X4448633Y-15504345D01*
X4388907Y-15306523D01*
X4333956Y-15203176D01*
X4294789Y-15129512D01*
X4294787Y-15129509D01*
X4291895Y-15124070D01*
X4288005Y-15119300D01*
X4288002Y-15119296D01*
X4165187Y-14968710D01*
X4165184Y-14968707D01*
X4161292Y-14963935D01*
X4156543Y-14960006D01*
X4006822Y-14836146D01*
X4006819Y-14836144D01*
X4002072Y-14832217D01*
X3820301Y-14733933D01*
X3721601Y-14703381D01*
X3628788Y-14674650D01*
X3628785Y-14674649D01*
X3622901Y-14672828D01*
X3616776Y-14672184D01*
X3616775Y-14672184D01*
X3423520Y-14651872D01*
X3423519Y-14651872D01*
X3417392Y-14651228D01*
X3290582Y-14662768D01*
X3217742Y-14669397D01*
X3217741Y-14669397D01*
X3211601Y-14669956D01*
X3013367Y-14728300D01*
X2830241Y-14824036D01*
X2669198Y-14953518D01*
X2665239Y-14958236D01*
X2665238Y-14958237D01*
X2566438Y-15075982D01*
X2536371Y-15111814D01*
X2533408Y-15117203D01*
X2533405Y-15117208D01*
X2529633Y-15124070D01*
X2436821Y-15292895D01*
X2374339Y-15489864D01*
X2373653Y-15495981D01*
X2373652Y-15495985D01*
X2356443Y-15649409D01*
X2351305Y-15695217D01*
X2351821Y-15701361D01*
X2365513Y-15864421D01*
X2351281Y-15933976D01*
X2329050Y-15964059D01*
X769497Y-17523613D01*
X757106Y-17534480D01*
X732987Y-17552987D01*
X727961Y-17559537D01*
X727960Y-17559538D01*
X709458Y-17583651D01*
X678336Y-17624210D01*
X639266Y-17675127D01*
X639266Y-17675128D01*
X633226Y-17689710D01*
X633225Y-17689711D01*
X614221Y-17735592D01*
X580350Y-17817363D01*
X568298Y-17908909D01*
X560255Y-17970000D01*
X561333Y-17978188D01*
X564222Y-18000133D01*
X565300Y-18016579D01*
X565300Y-25128422D01*
X564222Y-25144869D01*
X560255Y-25175000D01*
X565300Y-25213319D01*
X565300Y-25213321D01*
X580350Y-25327637D01*
X607272Y-25392631D01*
X639266Y-25469873D01*
X673423Y-25514386D01*
X732987Y-25592013D01*
X739537Y-25597039D01*
X739538Y-25597040D01*
X757106Y-25610520D01*
X769498Y-25621388D01*
X1398616Y-26250507D01*
X1409483Y-26262898D01*
X1427987Y-26287013D01*
X1458651Y-26310542D01*
X1550127Y-26380734D01*
X1609043Y-26405138D01*
X1684733Y-26436490D01*
X1684736Y-26436491D01*
X1692363Y-26439650D01*
X1722787Y-26443655D01*
X1787714Y-26472376D01*
X1826807Y-26531641D01*
X1827653Y-26602632D01*
X1795437Y-26657672D01*
X769497Y-27683613D01*
X757106Y-27694480D01*
X732987Y-27712987D01*
X673423Y-27790614D01*
X650296Y-27820752D01*
X650295Y-27820754D01*
X639266Y-27835127D01*
X639266Y-27835128D01*
X580350Y-27977363D01*
X565300Y-28091679D01*
X560255Y-28130000D01*
X561333Y-28138188D01*
X564222Y-28160133D01*
X565300Y-28176579D01*
X565300Y-34925503D01*
X564222Y-34941950D01*
X560255Y-34972081D01*
X203700Y-34972081D01*
X203700Y-11524669D01*
X2052001Y-11524669D01*
X2052371Y-11531490D01*
X2057895Y-11582352D01*
X2061521Y-11597604D01*
X2106676Y-11718054D01*
X2115214Y-11733649D01*
X2191715Y-11835724D01*
X2204276Y-11848285D01*
X2306351Y-11924786D01*
X2321946Y-11933324D01*
X2442394Y-11978478D01*
X2457649Y-11982105D01*
X2508514Y-11987631D01*
X2515328Y-11988000D01*
X2883526Y-11988000D01*
X2951647Y-12008002D01*
X2998140Y-12061658D01*
X3008244Y-12131932D01*
X2978750Y-12196512D01*
X2941903Y-12225661D01*
X2830241Y-12284036D01*
X2825441Y-12287896D01*
X2825440Y-12287896D01*
X2820066Y-12292217D01*
X2669198Y-12413518D01*
X2536371Y-12571814D01*
X2533408Y-12577203D01*
X2533405Y-12577208D01*
X2526641Y-12589512D01*
X2436821Y-12752895D01*
X2374339Y-12949864D01*
X2373653Y-12955981D01*
X2373652Y-12955985D01*
X2351992Y-13149092D01*
X2351305Y-13155217D01*
X2351821Y-13161361D01*
X2368080Y-13354994D01*
X2368081Y-13354999D01*
X2368596Y-13361133D01*
X2370294Y-13367053D01*
X2421636Y-13546102D01*
X2425555Y-13559770D01*
X2520010Y-13743560D01*
X2523835Y-13748386D01*
X2523837Y-13748389D01*
X2644535Y-13900672D01*
X2648364Y-13905503D01*
X2805730Y-14039431D01*
X2986111Y-14140243D01*
X3182639Y-14204099D01*
X3387826Y-14228566D01*
X3393961Y-14228094D01*
X3393963Y-14228094D01*
X3587715Y-14213185D01*
X3587718Y-14213184D01*
X3593858Y-14212712D01*
X3792887Y-14157143D01*
X3977332Y-14063973D01*
X4004899Y-14042436D01*
X4135307Y-13940550D01*
X4135308Y-13940549D01*
X4140168Y-13936752D01*
X4275191Y-13780325D01*
X4278235Y-13774967D01*
X4374216Y-13606011D01*
X4374217Y-13606008D01*
X4377260Y-13600652D01*
X4377632Y-13599532D01*
X4422497Y-13546753D01*
X4491620Y-13526100D01*
X7170309Y-13526100D01*
X7238430Y-13546102D01*
X7259404Y-13563005D01*
X10859405Y-17163007D01*
X10893431Y-17225319D01*
X10895232Y-17268547D01*
X10891091Y-17300000D01*
X10911839Y-17457597D01*
X10972669Y-17604454D01*
X10977696Y-17611005D01*
X11038089Y-17689711D01*
X11069436Y-17730564D01*
X11195545Y-17827331D01*
X11268974Y-17857746D01*
X11334773Y-17885001D01*
X11334776Y-17885002D01*
X11342403Y-17888161D01*
X11500000Y-17908909D01*
X11508188Y-17907831D01*
X11649409Y-17889239D01*
X11657597Y-17888161D01*
X11665224Y-17885002D01*
X11665227Y-17885001D01*
X11731026Y-17857746D01*
X11804455Y-17827331D01*
X11930564Y-17730564D01*
X11961912Y-17689711D01*
X12022304Y-17611005D01*
X12027331Y-17604454D01*
X12088161Y-17457597D01*
X12108909Y-17300000D01*
X12088161Y-17142403D01*
X12027331Y-16995546D01*
X11930564Y-16869436D01*
X11804455Y-16772669D01*
X11730884Y-16742195D01*
X11665227Y-16714999D01*
X11665224Y-16714998D01*
X11657597Y-16711839D01*
X11500000Y-16691091D01*
X11468547Y-16695232D01*
X11398399Y-16684293D01*
X11363006Y-16659405D01*
X9527638Y-14824036D01*
X7658167Y-12954565D01*
X7645495Y-12938875D01*
X7642673Y-12935774D01*
X7637025Y-12927026D01*
X7612633Y-12907797D01*
X7608603Y-12904216D01*
X7608520Y-12904314D01*
X7604563Y-12900961D01*
X7600882Y-12897280D01*
X7596648Y-12894254D01*
X7586289Y-12886851D01*
X7581544Y-12883288D01*
X7552105Y-12860080D01*
X7552103Y-12860079D01*
X7543925Y-12853632D01*
X7535820Y-12850786D01*
X7528829Y-12845790D01*
X7482938Y-12832066D01*
X7477293Y-12830232D01*
X7439553Y-12816979D01*
X7439550Y-12816978D01*
X7432071Y-12814352D01*
X7426852Y-12813900D01*
X7424141Y-12813900D01*
X7421864Y-12813802D01*
X7421415Y-12813667D01*
X7421417Y-12813613D01*
X7421184Y-12813598D01*
X7415248Y-12811823D01*
X7365385Y-12813782D01*
X7364850Y-12813803D01*
X7359904Y-12813900D01*
X4489806Y-12813900D01*
X4421685Y-12793898D01*
X4378555Y-12747054D01*
X4291895Y-12584070D01*
X4288005Y-12579300D01*
X4288002Y-12579296D01*
X4165187Y-12428710D01*
X4165184Y-12428707D01*
X4161292Y-12423935D01*
X4156543Y-12420006D01*
X4006822Y-12296146D01*
X4006819Y-12296144D01*
X4002072Y-12292217D01*
X3996647Y-12289284D01*
X3996643Y-12289281D01*
X3877453Y-12224834D01*
X3827044Y-12174840D01*
X3811667Y-12105528D01*
X3836204Y-12038906D01*
X3892863Y-11996126D01*
X3937382Y-11987999D01*
X4304669Y-11987999D01*
X4311490Y-11987629D01*
X4362352Y-11982105D01*
X4377604Y-11978479D01*
X4498054Y-11933324D01*
X4513649Y-11924786D01*
X4615724Y-11848285D01*
X4628285Y-11835724D01*
X4704786Y-11733649D01*
X4713324Y-11718054D01*
X4758478Y-11597606D01*
X4762105Y-11582351D01*
X4767631Y-11531486D01*
X4768000Y-11524672D01*
X4768000Y-10902115D01*
X4763525Y-10886876D01*
X4762135Y-10885671D01*
X4754452Y-10884000D01*
X2070116Y-10884000D01*
X2054877Y-10888475D01*
X2053672Y-10889865D01*
X2052001Y-10897548D01*
X2052001Y-11524669D01*
X203700Y-11524669D01*
X203700Y-10357885D01*
X2052000Y-10357885D01*
X2056475Y-10373124D01*
X2057865Y-10374329D01*
X2065548Y-10376000D01*
X3137885Y-10376000D01*
X3153124Y-10371525D01*
X3154329Y-10370135D01*
X3156000Y-10362452D01*
X3156000Y-10357885D01*
X3664000Y-10357885D01*
X3668475Y-10373124D01*
X3669865Y-10374329D01*
X3677548Y-10376000D01*
X4749884Y-10376000D01*
X4765123Y-10371525D01*
X4766328Y-10370135D01*
X4767999Y-10362452D01*
X4767999Y-9735331D01*
X4767629Y-9728510D01*
X4762105Y-9677648D01*
X4758479Y-9662396D01*
X4713324Y-9541946D01*
X4704786Y-9526351D01*
X4628285Y-9424276D01*
X4615724Y-9411715D01*
X4513649Y-9335214D01*
X4498054Y-9326676D01*
X4377606Y-9281522D01*
X4362351Y-9277895D01*
X4311486Y-9272369D01*
X4304672Y-9272000D01*
X3682115Y-9272000D01*
X3666876Y-9276475D01*
X3665671Y-9277865D01*
X3664000Y-9285548D01*
X3664000Y-10357885D01*
X3156000Y-10357885D01*
X3156000Y-9290116D01*
X3151525Y-9274877D01*
X3150135Y-9273672D01*
X3142452Y-9272001D01*
X2515331Y-9272001D01*
X2508510Y-9272371D01*
X2457648Y-9277895D01*
X2442396Y-9281521D01*
X2321946Y-9326676D01*
X2306351Y-9335214D01*
X2204276Y-9411715D01*
X2191715Y-9424276D01*
X2115214Y-9526351D01*
X2106676Y-9541946D01*
X2061522Y-9662394D01*
X2057895Y-9677649D01*
X2052369Y-9728514D01*
X2052000Y-9735328D01*
X2052000Y-10357885D01*
X203700Y-10357885D01*
X203700Y-8750000D01*
X13641091Y-8750000D01*
X13661839Y-8907597D01*
X13664998Y-8915224D01*
X13664999Y-8915227D01*
X13685710Y-8965227D01*
X13722669Y-9054454D01*
X13819436Y-9180564D01*
X13945545Y-9277331D01*
X14018974Y-9307746D01*
X14084773Y-9335001D01*
X14084776Y-9335002D01*
X14092403Y-9338161D01*
X14250000Y-9358909D01*
X14258188Y-9357831D01*
X14399409Y-9339239D01*
X14407597Y-9338161D01*
X14415224Y-9335002D01*
X14415227Y-9335001D01*
X14481026Y-9307746D01*
X14554455Y-9277331D01*
X14680564Y-9180564D01*
X14699876Y-9155396D01*
X14757214Y-9113529D01*
X14799839Y-9106100D01*
X20050309Y-9106100D01*
X20118430Y-9126102D01*
X20139404Y-9143005D01*
X22606995Y-11610597D01*
X22641021Y-11672909D01*
X22643900Y-11699692D01*
X22643900Y-21448572D01*
X22641766Y-21468621D01*
X22641568Y-21472811D01*
X22639376Y-21482993D01*
X22640600Y-21493334D01*
X22643027Y-21513840D01*
X22643344Y-21519215D01*
X22643472Y-21519204D01*
X22643900Y-21524382D01*
X22643900Y-21529584D01*
X22644754Y-21534714D01*
X22646839Y-21547243D01*
X22647674Y-21553115D01*
X22652084Y-21590374D01*
X22652086Y-21590381D01*
X22653310Y-21600722D01*
X22657030Y-21608468D01*
X22658440Y-21616942D01*
X22679270Y-21655548D01*
X22681192Y-21659109D01*
X22683885Y-21664396D01*
X22701195Y-21700442D01*
X22701197Y-21700445D01*
X22704628Y-21707590D01*
X22707999Y-21711600D01*
X22709937Y-21713538D01*
X22711452Y-21715189D01*
X22711673Y-21715599D01*
X22711631Y-21715637D01*
X22711792Y-21715820D01*
X22714735Y-21721274D01*
X22722382Y-21728342D01*
X22722382Y-21728343D01*
X22751795Y-21755532D01*
X22755361Y-21758962D01*
X30609405Y-29613007D01*
X30643431Y-29675319D01*
X30645232Y-29718547D01*
X30641091Y-29750000D01*
X30661839Y-29907597D01*
X30722669Y-30054454D01*
X30819436Y-30180564D01*
X30945545Y-30277331D01*
X31018974Y-30307746D01*
X31084773Y-30335001D01*
X31084776Y-30335002D01*
X31092403Y-30338161D01*
X31250000Y-30358909D01*
X31258188Y-30357831D01*
X31399409Y-30339239D01*
X31407597Y-30338161D01*
X31415224Y-30335002D01*
X31415227Y-30335001D01*
X31481026Y-30307746D01*
X31554455Y-30277331D01*
X31680564Y-30180564D01*
X31777331Y-30054454D01*
X31838161Y-29907597D01*
X31858909Y-29750000D01*
X31838161Y-29592403D01*
X31777331Y-29445546D01*
X31680564Y-29319436D01*
X31554455Y-29222669D01*
X31481026Y-29192254D01*
X31415227Y-29164999D01*
X31415224Y-29164998D01*
X31407597Y-29161839D01*
X31250000Y-29141091D01*
X31218547Y-29145232D01*
X31148399Y-29134293D01*
X31113006Y-29109405D01*
X23393005Y-21389403D01*
X23358979Y-21327091D01*
X23356100Y-21300308D01*
X23356100Y-11551427D01*
X23358234Y-11531378D01*
X23358432Y-11527188D01*
X23360624Y-11517006D01*
X23356973Y-11486160D01*
X23356656Y-11480783D01*
X23356528Y-11480794D01*
X23356100Y-11475616D01*
X23356100Y-11470416D01*
X23355246Y-11465284D01*
X23353158Y-11452739D01*
X23352321Y-11446861D01*
X23347913Y-11409620D01*
X23346689Y-11399277D01*
X23342971Y-11391534D01*
X23341560Y-11383058D01*
X23336078Y-11372897D01*
X23318806Y-11340886D01*
X23316113Y-11335600D01*
X23298805Y-11299558D01*
X23298803Y-11299555D01*
X23295372Y-11292410D01*
X23292001Y-11288400D01*
X23290063Y-11286462D01*
X23288548Y-11284811D01*
X23288327Y-11284401D01*
X23288369Y-11284363D01*
X23288208Y-11284180D01*
X23285265Y-11278726D01*
X23248205Y-11244468D01*
X23244640Y-11241039D01*
X20538167Y-8534565D01*
X20525495Y-8518875D01*
X20522673Y-8515774D01*
X20517025Y-8507026D01*
X20492633Y-8487797D01*
X20488603Y-8484216D01*
X20488520Y-8484314D01*
X20484563Y-8480961D01*
X20480882Y-8477280D01*
X20476648Y-8474254D01*
X20466289Y-8466851D01*
X20461544Y-8463288D01*
X20432105Y-8440080D01*
X20432103Y-8440079D01*
X20423925Y-8433632D01*
X20415820Y-8430786D01*
X20408829Y-8425790D01*
X20362938Y-8412066D01*
X20357293Y-8410232D01*
X20319553Y-8396979D01*
X20319550Y-8396978D01*
X20312071Y-8394352D01*
X20306852Y-8393900D01*
X20304141Y-8393900D01*
X20301864Y-8393802D01*
X20301415Y-8393667D01*
X20301417Y-8393613D01*
X20301184Y-8393598D01*
X20295248Y-8391823D01*
X20245385Y-8393782D01*
X20244850Y-8393803D01*
X20239904Y-8393900D01*
X14799839Y-8393900D01*
X14731718Y-8373898D01*
X14699876Y-8344604D01*
X14685591Y-8325987D01*
X14685590Y-8325986D01*
X14680564Y-8319436D01*
X14554455Y-8222669D01*
X14478218Y-8191091D01*
X14415227Y-8164999D01*
X14415224Y-8164998D01*
X14407597Y-8161839D01*
X14250000Y-8141091D01*
X14092403Y-8161839D01*
X14084776Y-8164998D01*
X14084773Y-8164999D01*
X14021782Y-8191091D01*
X13945546Y-8222669D01*
X13819436Y-8319436D01*
X13722669Y-8445546D01*
X13661839Y-8592403D01*
X13641091Y-8750000D01*
X203700Y-8750000D01*
X203700Y-7126000D01*
X223702Y-7057879D01*
X277358Y-7011386D01*
X329700Y-7000000D01*
X49670300Y-7000000D01*
X49738421Y-7020002D01*
G37*
G04 #@! TD.AperFunction*
G04 #@! TD*
M02*
