M48
; DRILL file {KiCad (6.0.5-0)} date Sunday, 12 June 2022 at 23.19.18
; FORMAT={-:-/ absolute / inch / decimal}
; #@! TF.CreationDate,2022-06-12T23:19:18+02:00
; #@! TF.GenerationSoftware,Kicad,Pcbnew,(6.0.5-0)
; #@! TF.FileFunction,Plated,1,2,PTH
FMAT,2
INCH
; #@! TA.AperFunction,Plated,PTH,ViaDrill
T1C0.0157
; #@! TA.AperFunction,Plated,PTH,ComponentDrill
T2C0.0394
%
G90
G05
T1
X0.4528Y-0.6811
X0.5Y-0.8189
X0.561Y-0.3445
X0.8622Y-1.1339
X1.0344Y-1.6959
X1.1339Y-1.5748
X1.2303Y-1.1713
X1.3858Y-0.3465
X1.4331Y-1.4705
X1.4567Y-0.4252
X1.5256Y-0.6102
X1.5591Y-1.122
T2
X0.1343Y-0.4185
X0.1343Y-0.5185
X0.1343Y-0.6185
X0.1343Y-0.8185
X0.1343Y-0.9185
X0.1343Y-1.0185
X0.1343Y-1.2185
X0.1343Y-1.3185
X0.1343Y-1.4185
X0.4343Y-1.8685
X0.5343Y-1.8685
X0.7343Y-1.8685
X0.8343Y-1.8685
X0.9343Y-1.8685
X1.0343Y-1.8685
X1.1343Y-1.8685
X1.2343Y-1.8685
X1.8343Y-0.4185
X1.8343Y-0.5185
X1.8343Y-0.6185
X1.8343Y-0.8185
X1.8343Y-0.9185
X1.8343Y-1.0185
X1.8343Y-1.2185
X1.8343Y-1.3185
X1.8343Y-1.4185
T0
M30
