G04 #@! TF.GenerationSoftware,KiCad,Pcbnew,(6.0.5-0)*
G04 #@! TF.CreationDate,2022-06-12T23:19:16+02:00*
G04 #@! TF.ProjectId,ESP8266-Breakout,45535038-3236-4362-9d42-7265616b6f75,1.1*
G04 #@! TF.SameCoordinates,PX2faf080PY2faf080*
G04 #@! TF.FileFunction,Soldermask,Bot*
G04 #@! TF.FilePolarity,Negative*
%FSLAX46Y46*%
G04 Gerber Fmt 4.6, Leading zero omitted, Abs format (unit mm)*
G04 Created by KiCad (PCBNEW (6.0.5-0)) date 2022-06-12 23:19:16*
%MOMM*%
%LPD*%
G01*
G04 APERTURE LIST*
%ADD10C,0.010000*%
%ADD11R,1.700000X1.700000*%
%ADD12O,1.700000X1.700000*%
G04 APERTURE END LIST*
G04 #@! TO.C,G\u002A\u002A\u002A*
G36*
X23564071Y-34934341D02*
G01*
X23549984Y-35262222D01*
X23552019Y-35419311D01*
X23571390Y-35685894D01*
X23613670Y-35914878D01*
X23681920Y-36116664D01*
X23779202Y-36301653D01*
X23908579Y-36480245D01*
X24039328Y-36639934D01*
X23718358Y-37595023D01*
X23650622Y-37796345D01*
X23580182Y-38005177D01*
X23516786Y-38192576D01*
X23462614Y-38352124D01*
X23419844Y-38477406D01*
X23390657Y-38562003D01*
X23377230Y-38599500D01*
X23375723Y-38602587D01*
X23367861Y-38610766D01*
X23352067Y-38617923D01*
X23324876Y-38624128D01*
X23282824Y-38629448D01*
X23222444Y-38633950D01*
X23140272Y-38637702D01*
X23032843Y-38640772D01*
X22896691Y-38643227D01*
X22728351Y-38645135D01*
X22524358Y-38646564D01*
X22281247Y-38647582D01*
X21995552Y-38648255D01*
X21663808Y-38648652D01*
X21282551Y-38648841D01*
X20848314Y-38648889D01*
X18339555Y-38648889D01*
X18339555Y-38029973D01*
X18881689Y-38029973D01*
X19418799Y-38013889D01*
X19542600Y-37675222D01*
X19629800Y-37436709D01*
X19719084Y-37192900D01*
X19792252Y-36994172D01*
X19851101Y-36836184D01*
X19897431Y-36714599D01*
X19933042Y-36625075D01*
X19959733Y-36563275D01*
X19979304Y-36524859D01*
X19993553Y-36505488D01*
X20004281Y-36500822D01*
X20013286Y-36506522D01*
X20022368Y-36518249D01*
X20029974Y-36529525D01*
X20066163Y-36590486D01*
X20116600Y-36681441D01*
X20172826Y-36787265D01*
X20286889Y-37006508D01*
X20286889Y-38028000D01*
X20766666Y-38028000D01*
X20766666Y-37449445D01*
X21288778Y-37449445D01*
X21355656Y-37584075D01*
X21405429Y-37667712D01*
X21524367Y-37804875D01*
X21668283Y-37915817D01*
X21820133Y-37985798D01*
X21832738Y-37989345D01*
X21924965Y-38007008D01*
X22051521Y-38019004D01*
X22219725Y-38025835D01*
X22436900Y-38028000D01*
X22911555Y-38028000D01*
X22911555Y-34500222D01*
X22408583Y-34500222D01*
X22236268Y-34501297D01*
X22053300Y-34506896D01*
X21910383Y-34518915D01*
X21798275Y-34539163D01*
X21707732Y-34569448D01*
X21629508Y-34611578D01*
X21554359Y-34667364D01*
X21510526Y-34709748D01*
X21436481Y-34800585D01*
X21372495Y-34899410D01*
X21288778Y-35050556D01*
X21288778Y-37449445D01*
X20766666Y-37449445D01*
X20766666Y-34500222D01*
X20286889Y-34500222D01*
X20286889Y-35306221D01*
X20286848Y-35353318D01*
X20285705Y-35555212D01*
X20283148Y-35735152D01*
X20279385Y-35886242D01*
X20274624Y-36001582D01*
X20269074Y-36074275D01*
X20262945Y-36097422D01*
X20258163Y-36091072D01*
X20231782Y-36042381D01*
X20186491Y-35951375D01*
X20125333Y-35824416D01*
X20051353Y-35667863D01*
X19967598Y-35488078D01*
X19877111Y-35291423D01*
X19515220Y-34500222D01*
X19019718Y-34500222D01*
X19346058Y-35170500D01*
X19428252Y-35339893D01*
X19508713Y-35506925D01*
X19577950Y-35651929D01*
X19632563Y-35767738D01*
X19669150Y-35847187D01*
X19684310Y-35883111D01*
X19684118Y-35888853D01*
X19670648Y-35939314D01*
X19639324Y-36034568D01*
X19592263Y-36168757D01*
X19531579Y-36336023D01*
X19459390Y-36530509D01*
X19377810Y-36746357D01*
X19288955Y-36977709D01*
X18881689Y-38029973D01*
X18339555Y-38029973D01*
X18339555Y-33879334D01*
X24016620Y-33879334D01*
X23913815Y-33999278D01*
X23909800Y-34003983D01*
X23776419Y-34191688D01*
X23675518Y-34405219D01*
X23648355Y-34500222D01*
X23605325Y-34650722D01*
X23564071Y-34934341D01*
G37*
D10*
X23564071Y-34934341D02*
X23549984Y-35262222D01*
X23552019Y-35419311D01*
X23571390Y-35685894D01*
X23613670Y-35914878D01*
X23681920Y-36116664D01*
X23779202Y-36301653D01*
X23908579Y-36480245D01*
X24039328Y-36639934D01*
X23718358Y-37595023D01*
X23650622Y-37796345D01*
X23580182Y-38005177D01*
X23516786Y-38192576D01*
X23462614Y-38352124D01*
X23419844Y-38477406D01*
X23390657Y-38562003D01*
X23377230Y-38599500D01*
X23375723Y-38602587D01*
X23367861Y-38610766D01*
X23352067Y-38617923D01*
X23324876Y-38624128D01*
X23282824Y-38629448D01*
X23222444Y-38633950D01*
X23140272Y-38637702D01*
X23032843Y-38640772D01*
X22896691Y-38643227D01*
X22728351Y-38645135D01*
X22524358Y-38646564D01*
X22281247Y-38647582D01*
X21995552Y-38648255D01*
X21663808Y-38648652D01*
X21282551Y-38648841D01*
X20848314Y-38648889D01*
X18339555Y-38648889D01*
X18339555Y-38029973D01*
X18881689Y-38029973D01*
X19418799Y-38013889D01*
X19542600Y-37675222D01*
X19629800Y-37436709D01*
X19719084Y-37192900D01*
X19792252Y-36994172D01*
X19851101Y-36836184D01*
X19897431Y-36714599D01*
X19933042Y-36625075D01*
X19959733Y-36563275D01*
X19979304Y-36524859D01*
X19993553Y-36505488D01*
X20004281Y-36500822D01*
X20013286Y-36506522D01*
X20022368Y-36518249D01*
X20029974Y-36529525D01*
X20066163Y-36590486D01*
X20116600Y-36681441D01*
X20172826Y-36787265D01*
X20286889Y-37006508D01*
X20286889Y-38028000D01*
X20766666Y-38028000D01*
X20766666Y-37449445D01*
X21288778Y-37449445D01*
X21355656Y-37584075D01*
X21405429Y-37667712D01*
X21524367Y-37804875D01*
X21668283Y-37915817D01*
X21820133Y-37985798D01*
X21832738Y-37989345D01*
X21924965Y-38007008D01*
X22051521Y-38019004D01*
X22219725Y-38025835D01*
X22436900Y-38028000D01*
X22911555Y-38028000D01*
X22911555Y-34500222D01*
X22408583Y-34500222D01*
X22236268Y-34501297D01*
X22053300Y-34506896D01*
X21910383Y-34518915D01*
X21798275Y-34539163D01*
X21707732Y-34569448D01*
X21629508Y-34611578D01*
X21554359Y-34667364D01*
X21510526Y-34709748D01*
X21436481Y-34800585D01*
X21372495Y-34899410D01*
X21288778Y-35050556D01*
X21288778Y-37449445D01*
X20766666Y-37449445D01*
X20766666Y-34500222D01*
X20286889Y-34500222D01*
X20286889Y-35306221D01*
X20286848Y-35353318D01*
X20285705Y-35555212D01*
X20283148Y-35735152D01*
X20279385Y-35886242D01*
X20274624Y-36001582D01*
X20269074Y-36074275D01*
X20262945Y-36097422D01*
X20258163Y-36091072D01*
X20231782Y-36042381D01*
X20186491Y-35951375D01*
X20125333Y-35824416D01*
X20051353Y-35667863D01*
X19967598Y-35488078D01*
X19877111Y-35291423D01*
X19515220Y-34500222D01*
X19019718Y-34500222D01*
X19346058Y-35170500D01*
X19428252Y-35339893D01*
X19508713Y-35506925D01*
X19577950Y-35651929D01*
X19632563Y-35767738D01*
X19669150Y-35847187D01*
X19684310Y-35883111D01*
X19684118Y-35888853D01*
X19670648Y-35939314D01*
X19639324Y-36034568D01*
X19592263Y-36168757D01*
X19531579Y-36336023D01*
X19459390Y-36530509D01*
X19377810Y-36746357D01*
X19288955Y-36977709D01*
X18881689Y-38029973D01*
X18339555Y-38029973D01*
X18339555Y-33879334D01*
X24016620Y-33879334D01*
X23913815Y-33999278D01*
X23909800Y-34003983D01*
X23776419Y-34191688D01*
X23675518Y-34405219D01*
X23648355Y-34500222D01*
X23605325Y-34650722D01*
X23564071Y-34934341D01*
G36*
X22403555Y-37576445D02*
G01*
X22241278Y-37574852D01*
X22140173Y-37570222D01*
X21999058Y-37543512D01*
X21897225Y-37490257D01*
X21826393Y-37407111D01*
X21825148Y-37404977D01*
X21810376Y-37377184D01*
X21798423Y-37345907D01*
X21788991Y-37305260D01*
X21781783Y-37249360D01*
X21776500Y-37172322D01*
X21772846Y-37068262D01*
X21770522Y-36931295D01*
X21769231Y-36755538D01*
X21768675Y-36535104D01*
X21768555Y-36264111D01*
X21768607Y-36105468D01*
X21769067Y-35861652D01*
X21770221Y-35665193D01*
X21772332Y-35510258D01*
X21775664Y-35391012D01*
X21780478Y-35301622D01*
X21787038Y-35236255D01*
X21795606Y-35189075D01*
X21806446Y-35154249D01*
X21819819Y-35125944D01*
X21840253Y-35093550D01*
X21929578Y-35013752D01*
X22059370Y-34967013D01*
X22233316Y-34951778D01*
X22403555Y-34951778D01*
X22403555Y-37576445D01*
G37*
X22403555Y-37576445D02*
X22241278Y-37574852D01*
X22140173Y-37570222D01*
X21999058Y-37543512D01*
X21897225Y-37490257D01*
X21826393Y-37407111D01*
X21825148Y-37404977D01*
X21810376Y-37377184D01*
X21798423Y-37345907D01*
X21788991Y-37305260D01*
X21781783Y-37249360D01*
X21776500Y-37172322D01*
X21772846Y-37068262D01*
X21770522Y-36931295D01*
X21769231Y-36755538D01*
X21768675Y-36535104D01*
X21768555Y-36264111D01*
X21768607Y-36105468D01*
X21769067Y-35861652D01*
X21770221Y-35665193D01*
X21772332Y-35510258D01*
X21775664Y-35391012D01*
X21780478Y-35301622D01*
X21787038Y-35236255D01*
X21795606Y-35189075D01*
X21806446Y-35154249D01*
X21819819Y-35125944D01*
X21840253Y-35093550D01*
X21929578Y-35013752D01*
X22059370Y-34967013D01*
X22233316Y-34951778D01*
X22403555Y-34951778D01*
X22403555Y-37576445D01*
G04 #@! TD*
D11*
G04 #@! TO.C,J8*
X18650000Y-47460000D03*
D12*
X21190000Y-47460000D03*
X23730000Y-47460000D03*
X26270000Y-47460000D03*
X28810000Y-47460000D03*
X31350000Y-47460000D03*
G04 #@! TD*
D11*
G04 #@! TO.C,J7*
X11030000Y-47460000D03*
D12*
X13570000Y-47460000D03*
G04 #@! TD*
D11*
G04 #@! TO.C,J6*
X3410000Y-20790000D03*
D12*
X3410000Y-23330000D03*
X3410000Y-25870000D03*
G04 #@! TD*
D11*
G04 #@! TO.C,J5*
X3410000Y-10630000D03*
D12*
X3410000Y-13170000D03*
X3410000Y-15710000D03*
G04 #@! TD*
D11*
G04 #@! TO.C,J4*
X46590000Y-30950000D03*
D12*
X46590000Y-33490000D03*
X46590000Y-36030000D03*
G04 #@! TD*
D11*
G04 #@! TO.C,J3*
X3410000Y-30950000D03*
D12*
X3410000Y-33490000D03*
X3410000Y-36030000D03*
G04 #@! TD*
D11*
G04 #@! TO.C,J2*
X46590000Y-10630000D03*
D12*
X46590000Y-13170000D03*
X46590000Y-15710000D03*
G04 #@! TD*
D11*
G04 #@! TO.C,J1*
X46590000Y-20790000D03*
D12*
X46590000Y-23330000D03*
X46590000Y-25870000D03*
G04 #@! TD*
M02*
